<mxfile host="65bd71144e">
    <diagram id="HIP3nbAZw_EuaXWnEj3U" name="Page-1">
        <mxGraphModel dx="1538" dy="1024" grid="1" gridSize="10" guides="1" tooltips="1" connect="1" arrows="1" fold="1" page="1" pageScale="1" pageWidth="850" pageHeight="1100" background="#00ffff" math="0" shadow="0">
            <root>
                <mxCell id="0"/>
                <mxCell id="1" parent="0"/>
                <mxCell id="31" value="&lt;font color=&quot;#ff0000&quot;&gt;&lt;span style=&quot;font-size: 24px;&quot;&gt;Division Calculator&lt;/span&gt;&lt;/font&gt;" style="swimlane;whiteSpace=wrap;html=1;startSize=50;fillColor=#ffff00;" vertex="1" parent="1">
                    <mxGeometry x="40" y="40" width="1019" height="590" as="geometry"/>
                </mxCell>
                <mxCell id="32" value="Please enter two numbers" style="text;html=1;align=left;verticalAlign=middle;resizable=0;points=[];autosize=1;strokeColor=none;fillColor=none;fontSize=24;fontColor=#000000;" vertex="1" parent="31">
                    <mxGeometry x="30" y="85" width="300" height="40" as="geometry"/>
                </mxCell>
                <mxCell id="33" value="7" style="rounded=1;whiteSpace=wrap;html=1;fontFamily=Helvetica;fontSize=24;fontColor=#000000;fillColor=none;strokeWidth=5;strokeColor=#000000;" vertex="1" parent="31">
                    <mxGeometry x="40" y="160" width="170" height="40" as="geometry"/>
                </mxCell>
                <mxCell id="34" value="Calculate" style="rounded=1;whiteSpace=wrap;html=1;fontFamily=Helvetica;fontSize=24;fontColor=#000000;fillColor=none;strokeWidth=5;strokeColor=#000000;" vertex="1" parent="31">
                    <mxGeometry x="50" y="320" width="150" height="40" as="geometry"/>
                </mxCell>
                <mxCell id="35" value="" style="shape=image;verticalLabelPosition=bottom;labelBackgroundColor=default;verticalAlign=top;aspect=fixed;imageAspect=0;image=data:image/png,iVBORw0KGgoAAAANSUhEUgAAAnUAAAHiCAYAAACOfDoyAAAAGXRFWHRTb2Z0d2FyZQBBZG9iZSBJbWFnZVJlYWR5ccllPAAA/5RJREFUeNrsvQmgHUd1Jnz63rfqaZcleZEsyZIMtmVs40WAAS9gwCZgOzFrIJAJw8xk/Wcm/ySZBK9A7AyZyQSTMJksECAsxgk7BBvbgFccbBlbRjJetNjal6fl7fdWTZ/qrdbuvre7r57uO5/U797ba/XX1VVfnXOqygMCoSL80R9/ZKX/sZKYIBAIhBgb/vRjtwwTDYQq4BEFhLLw3//4I9f4H5f4y7n+cikxQiAQCE7c5y8/xM+Pf+yW+4gOAok6wjHHH//J9edygN/zv6Kgm0+MEAgEQstAy91n/Ar5f3/sozdvIToIJOoInRZzl/ofNwBZ5AgEAqFM3OcvN/ni7j6igkCijlCtmPvIDeha/V8k5ggEAqFSfM1f/vPHbrlpC1FBIFFHKB1/8pEbboTAOkcgEAiE6oFu2Zs+estNf0FUEEjUEcoRc9ffOB84vxeCDhAEAoFA6Cy+Bp736x+9+UbqNUsgUUdoHx+5/kYUcijoqBMEgUAgHDts8Jdrb7n5xi1EBYFEHaF1QXfDTSToCAQCYfoALXWX3XLTDRuICgKJOkJuXE+CjkAgEKatsLuZhB2BRB0hl6C78eZzwxg6EnQEAoEw/bABPO+ym2+8nmLsCAp6iAKCjBtuvBmF3D/4BUZbgm7JkiVw6qnLYan/OW/ePFiydAkM9PcTsQQCYcZjfGIC9uzeA4cOHYLde/bAtm3bYY//2QbQk/Iv/nIZsUqQQZY6girqbrrlH/yPD7ZyzOlr18Bafzl97VroJwFHIBAIuYECb9v27fDkkxvFZ4u46aYbPnIjsUggUUcwcONNt1wTtv4ygeLt7LPXwQXnnw/z5s0l8ggEAqGwwDsM9z/wIDz11FOtHHbejTd8hOLrCCTqCJKgu/mjOBbd4/7XlVn7XnDB+fDai19jtcpxzqHRbEJjqgGMMbEEOc1LMlz4x5NyoKdnSS/ew/ju3j/5Yn5Xs73n2b5jMo/NK+HThn9L25erf1pPj3Iob2l71rHZ10t+mKfhmcfkO3+wwraeRyu49SyQkiTn8fHdpJzTdivK1pR1jhQ4zhVnIu0eePqZHOfhGURzy8H6Mbbr2Lnh5m1zy57ckY/yHM9TuAzLOAuV5nMS3PDgUyzBulmzBqFer8O8uXOdDWIUdw/44u7JfOLuPl/UkRuWQKKOkOCmmz96I2TMFoHxcldd+WbxKaPpC7fJyUmYmJiEpi/oEt3mtfhdFXteDoHn/p4m3lr93qpAa11ItSLC8uxbxj48tbJvT9TxrEqbZ4k6bZurAm5lfU5Rxy0iKq+Aa22dqhS4S4jlXZdrH5cY5Jn72IUft/92HKMLP/tvmyjjVlHHecpvniXyeOpvU9TZfydiLlgYfrLoN4vXL1y4QMQfn7h0CfT0qGHu6I79zne/B4d9kZeBX7/h+j/5DNVkhDpRQLjplo/N9xXMF/1lQCgZy4LWuWuvuRqGhobi41DIHTl6FEZGRmFqquEXWKwNIdd9oo5AIBDyNoRGRsfgwIGDsHXbdhgfHxfCbnBgQGxDsXf2unWijN2zdy+4ymd/Ofe+e+/538QygUQdAS6//A1/6BcLb/FCXSUv2HP1TW96I6y/6KJ4/4mJCTg4fEgUNOheRZelWNoSciTqCATCzBV1sp3vyJGjsHPnLjh4cBjmzJ4N/f19QuRhRzQsi7ds2QK2ctpf5l92+Ru23nvvPRRbN8NRIwoIPj5gW4kxc+9+1zth3Vlnid8o4Pbs3ScWtNIRCAQCoXygqHvokUdh0+ZfQKPREOvOP/+VcOWVb265HCfMLJClbobjlo9+/FLP8/6/2NoWLgMDA0LQLVmyWOyHVrmdu3fDlF/A1LR9yVJHIBAI6chjqdPDE4cPDcPOXbtF3B02speE438+99xztjJ45eWXv+Gz997zAxqQeAaDLHUzHZ53tS1G413vekcs6PYfOCgEXdyTlUAgEAgdwdjYGDzw4MPw4ks7xO91Z50JV77lza7YumuIMRJ1hJkNoxC48s1vgiWLA0GHrcT9Bw4QSwQCgXAM8bMnn4Knf75JfD/LF3avefWrbLtdTUyRqCPMUHz047eu9Nt2K+WAW2wFYoGB2LFzFxw6fJiIIhAIhGmAF17YChueeFJ8R1F36vJleoeJS4klEnWEGQq/ADhXjsnAWI3LLr1EbHtxx04YPnSISCIQCIRphBdffAk2P/Os+H71298m4p/lcvxjH7/1XGKJRB1hZkJ5+d/y5itEMO7uPXtheJhibQkEAmE6YvMzv4Dt218U5fWrX70+tVwnkKgjzBR43ooowHbNmtWwbNkyODoy4ou6PcQNgUAgTGM8ufFpMZ3YK887L5jlJ+kssZLYIVFHmJGazlsZmewvveT1YoovjNkgEAgEwvQGzuLz2IYnxHcsv2UXLIFEHWEmirpwOevMM2Du3Lmiy3w0dyuBQCAQpjfQUrdp8zOwbNkpsGTxCVGZfgkxQ6KOMINx5hlniOlp9u+noUsIBALheMKzzz0Po6OjcN65FEpHIFE3s+F5MHfePNHK27FzJ/FBIBAIxxnQDfvzTc/A6tWnQf/AANBUOCTqCDNW03mw5rTT4MiRI8JSRyAQCITjD1u3bRehM2t8YUcxdSTqCDNV1PnLGWe+HHbtpt6uBAKBcDzjF88+D8tOOQVI0pGoI8xgLFywAA4cpDHpCAQC4XjG1m3b4BRf1BFmNnqIgpmLtWvXwJ69+6ZNeo4ePQobNjwBzz33HOzatQt2794duxJEV/3gi7rO+V18C4ZtgmD8Ji/cBvK55HOG+ybHJtshPjY8n5Km5Brhz3jMKC8+XDqH8mlui9MRn0f7HcJLLh72evO07a59wwO4eU0l/QDmbw/kvYxj9XtSz2Eepx5pPQDMs4G53gtvyLEnz50LefZBnJubLeu4tk3el6fsw+Xvjm36ccp617nifZMz6MfFn5bzRcfp+0bnSU6bHI+/efhb3x4fz+OzGmnkljTJ54yvradNS0fa+TjX9hP7WM7tf1m4cGG8rFmzFhYtWjRtys+pqSlRhk6nNBFI1BE6KerWrIHDh48c83Rs2LABvvrVr8IDDzyQKti8LEFnEW5ebhHoGecBy7lyn9dxDEhi0rVf2nkiIZOZTv06uiB2nVMWu22uk8WWvl4RtIo6c4hRZRdNsFlihzrheuIpQs8pzCzrwbJPIlzyCbk84s61Tj5W/i32N8SaKfRsv+1Cj6vCybJ/1nWs57F8z3PuvOfKc160jF122WWwfv2rpkWZ/tKOnUJwEkjUEWYgBgcHYduLL0Gtdmy88GiN+9NbbxWiDivsKB0uwWS11JQk6KwCoWxB5xBlNkGWJfiyhKJVuDmOgZIEXpqYSxNyuUSc52WKt9QA8XaCxzl3Wge5vs0/P9fTEu4j7+/J++H3aL2+Xd6mCzf5OUXnDo9T9rWsk4+Vz2c7l7wfj/J2KPi4lAeU35ZryPvi+T3pmrZjvaz9ou3hdeTvrvM5v6ecK895X3zxRfjc5z4H3/72t+H9738/rF17+jEt0/fu2wenr1lNlRuJOsJMBE4Efazwve99D26//XbhLnAJtzyiLE2EtSLoMoVWhwRdpjXPsQ3SfmdZ50oSc+0IuTwizssSbw7BVthqJ52Xu9IgiTtD7MniyCHyQOJMF3jRNuMcFnHXrpBz7iNd23pcmnhz7Otpgvl4FXbKMw+f24EDB+Av/uIv4KqrrvKXtx6zcnVkZBQmJieociNRR5iJOHT48DESdN+FP/3TWzPdqrnFnee5Y66mg6CTKv3Mc2eIP+c2XexFv3NY50q31uliI4+Qa9Pl2rLFrl19J1X+eS10NgHHtfOlCbxIfMjWPS5dIzrWJu5s1jzd2qYIQIsQk9PsssqlircUEXW8CDtusdZGHNqO/c53vgP79++H97//145Zud5sMqrcSNQRZiJw0MpO48f33x8LOsNyOHsOnP2Gt8Ga9ZfC8nWvpAdEIBCmHXb8fAPs3fIsPPHdO+Dw3l2G4H/44YdFZ4Urr7zqmKSv0aCpHknUEWYk9vktyk7G02EM3a233mrtoHDxez4MF7z9PdA/NIceDIFAmLY4+YxzxXLOldf5wu6r8JOv/j2MHz0Sl2kIjLHD3rFr1qzpePomJsj9OpNB49QROobPfOYzIoZOFnRonXvPx/+PEHUk6AgEwvEEFHbXXv+XohzTG6vYgeJYYGJikh4MiToCoVqglQ47R+hu16t+70ZYvu58IohAIByXOGHFGiHssFEql28HDuyHRx55uOPp2bN3Lz0UEnUEQrVAK12EqCV74dXvhbWvupTIIRAIx72wW/+OXzfKuHvvvY/IIZCoI3Qf7r//fm2GgyCOjkAgELoB51z5Dpi75CTFDbtjx0uiNyyB0ClQRwlC5Xj22WdhZGREacGuu/yXoG/WHNf4rgQCgXBcCrv7//GTylAoWP5ddNFFRA6BRB2hO4DxdBEiUbfs7POBQTWK7tBEEw5PtD9W02CvBycMVv9qMP/2d49OQZERCJYM9UB/vfrJsUanGOwfaz+h/T0Bp7UOzOO1Z7QBE43289aCgTrM7qveiTHR5LDPTytrM6nI5UmzezvC6cHxJhydbP+dQj6R16oxOToCD/7Dn8PU6Ehbx/fOGoJz3v4+WLD8tLaOX7RyTVzORWPX4cDEBAKJOkLX4NnnnosLughzFp9UupXOryP9Cn3KF3TFxmkamQpEzMmz+6AqvTTuJ3bHkUmYYsVIeGG4CUtm9VZaYe4ba/iCrlGY0xFfFJzoi5CBikhFLl86MuWLJVYwrU2fzx6f1+qKR2x47BGCrtjzHznI4JQ5vTCrpxoRiu/ULv/hHZ1sFuZ0xH+nThzqreyd2r35Z/DDv7pZCLui5zn/Xf8BVr/mipaPPenl5yoDc6OwQxcsgUCijtBV0GeOEAVemSKpwUXlM1HSaOpYAT03PAGn+CJkVm+5FSZaPVB8llaZ+ecaafgVpi/u6iUmFancMTIpBG45QpbBtsOTQizN6y9XhKIVaaf//FlJLYUD4w2RB/D595aoQpDTvWNTQtSVI7q44HTRYE/p1mV8p3YcLd7wiHDEF4bjjaCxNNBTrrL72Te+AE9+8/OlnAtF4UP/8D99cfckvPrX/0vrZR2AMp3Y2NgYVQAEEnWE7hZ4OPlPSXWFsMztGWuUVqErFeYRv8Ic6BGVZlGwyOoxVf6I73KFWYY7dsw/10tHpyrhFMUXCia0MJbhOtw72oCDE+XPjoIi9AVfMKFYLsMdi+7WMhseMtCaiiIMLWFlcDqMDY+xqdLTOem/BFsOT8CSwV6YX4J1Gd2sP/rrm2HP5p+VntbnH7wLDm5/Dl73m9fD0KKlbZVzBAKJOkL3iTgw53QVc1GWIBiwohz2RV2TVdfjYhJjn/xKc1HBSmj3SEMIr6o6hzR8Dg6NN2DIFyBF3HFomdnpC7rgGVWT1qa4xiQsLeiOOzzZFK69qtLpMwCj/vmbnMHcvvafvwgN8AUd3ndVaZ30xeJu/xqLZ/UU4vSoL7jRUlllJyZsNEyOMJHWIvjplz8NI/t2V/fu+6LxyW98Hk5/wzW54+xsc8MSCJ0CDWlC6ICqU4cyiSYoL7pgLDxak0b9CmLpUA/01Mo5b7SIQHRfdKDIQVF3wBeP7Z7rkC8+cEEqFg70lJpOXAZ9EYdB83iNHT4naBFp91wvhcfP7++BvrpXelrRTYjP6ogvHjCurN3zYFziTl8oo2CKOmGUmU68d+QU04nXweu1ey68T3SRD/jPaai3Vjqn8/vrwvIVPf92z4PPHa2JaFGtglM8H8YAohUU3ydMb7vnevKbX4AXHrob5vtiC0VX2Tjl3FfDee/8sLjG/X99C0z4Ai9PukBrwJLFjkCijtCFuk4t2NAKwAouu1B8NJmwKO3xK92T/Qp4yK80IytgkaXPr32WzekTlU9gCeLC0jLmK8lW04nHYPrwHGipQ4saxmrVJItlkWWhX5mj2w2vgeduhB0G2uE0sSZyODjeEC7SeX31UtKJYVTLfU7rPreBJYjDoYmGsLS2mk4/if49TopzYB6IOrbgcysjrXN84XWKfz7snRrlMbweXrfVtOL94X1G9zvb5xMFUxnpxDyEzx7PGeUxzK/7xhptPX/MN1Eewrg/fAewY0sZacXzrJjbD0cmWJzHMM3tvFMY77bxW18QZclLGx6CWYuWwIUf+C+i92oZONcXc3i+Rz77P8Xvkf274Sf+9zxpkz0UQIKO0GGQ+5VQvaDTrHQQtWoLuHeG/cpRjk1DywK6nrAiHp7wRMxWu0ALzeLBXuEi0nt9YuC4ECY5C2tMV2T5kNM+0NMLp87tEx0miniO0eqHVjrsLCHHauF3PDfeR14gn8NSbFqUdhSgGNheJLgfLXMoZALhqMZqYUwcirH+Fnp57BpRA/gx7fjcUNijYESXebuY4wskdLXieTAPRJgSVqxJOGmoL/e58Dng/cnA+8c8hHkVr9F2i9xDC2UQQ7fdF5xyHsN8O+DzOdiCGx47cOh5CM+D6cRtRTjFdGBeTctjed+pybGj8MCnb1bWbfjK38Ab//h2uOQ/3wpPf+ufYGrsaNtpPecdH4b5y1bDD//XHyhDo6B4fOYHX4O1l1+TWd7Frld8JiTsCCTqCF1mpjOsdlg9tDtOHVYuey1DbKAbdr9fSeLwHnML9q5s4FAEfgWupxArdhRQaB3JV1E2rIHxeA6s2JcO9Ram99BkQ8SWmcK3Gbv7Mu83vC9uEyVjDdFjtYxewCiKm5qaFxX7aCDI8wT5izHTLKIdnz2Oh1dGp5aRRlOczxS+THTKyNN7V1iTR6es94t5C58/uneLAkWRrYcqXgMtY3k4xUbQsEW0Y74aKInTScYy81gePPTpW6zj0D3or3/Df/8kvOo//knhtKIVcO8zTxrrn7jjb+CE08+GectOSynuvFLihQmEthp7RAGhM7pO7yjR/oKWD9c2tCwUOXe0oHBALWbbhsNnoLsvz3mwZ65tPZ770AQrJa2HU86DvRjznAPT4rpf1z20uiBnOCiwbRuujzqRZC1pz/jAWDlpTTtPWv6TF7yftPvNm4eyOMX86MpjB3M+/7R8crikfFpGHkOhZRNbolG3fzf84p6vl5LWn3/7C86yDIVd2rGRtS6KrSM7HYEsdYSuF3dxUHEbyDq2jDZynmvwnOcpeo4iaW0lncRpuXzwDqS1TE758cApL5Y/SgFPv0bceOU83I9kHYFEHaELxZxaLvK2x0CTW8Q2lDG2WtZwHkFHD54rrWnXKCet7uvkTyfvAKfQAU47k9a86aw6rdnX4IXTWh6nxfMYz5BsRcqVVpD7GqIRS+U/gUQdoZsEnSTs4o4SvP2OEkwU3bxQaz6fVYGnFuqceznOw9OvUUJa0/gQ23jx+y0lnZxXzmne++1EHivrfotcI28eKyMPdSKPZXUqKlKutHQfPGcjVuxIqo5Aoo7QVarO1VGi/VKVp1ZQJRTcPNtVxPIlNfUapcwtkJbWnNfgneAUqucUOsFpC+ks434LXSMvHyXkoU7ksTx6rfz5Olq7htFRgjQdgUQdoft0nTnva7stap5RupdjVeCZ1+AFA8B4iRYQ13Xy8pznfsuo1KvnFCrnNC8fpd1vkWu0YKktmoc6kcey9ikrrWVcgwYdJpCoI8wYcRdUaG3G1GVaJ0qKqcos2HmutKZX6iWkFTKC3PPGVFXNKXSA006lNWc6q04rLymPlZGHOpHHMmPqSnqnsu+FZ4q5aB+SdgQSdYSuFHN6RdGumyQziL2UQjsrUD6/WzNtW9Vp5a24XyvmlHUJp3n5KOt+i1yjjOc/nTjNFx9YtaLLfw2y1hFI1BFmhLgr4nriGe31cgLls6wseYP6M65RkluLp6azhPutOJ1lcVqeS7t4Hivrfotcg5WQVl5a5xMogdPs7dOpowRa60jYEUjUEbpLyDlarW2LOl59T03Os3s/5o5VS7tGSbFqruugaMgXq9SBHsU5nltxTr2OpbVT91vsGrxwWsvjlJfCaeY1OjCZQ9o1aEYJAok6QperOlvvV972NGFZ1gcGJcVUZbiK8lyHZwT1l5HWND5yp7MDnLIOcMo6llbesfstcg1eQlpZx96pYvGUZb5T2XxlX4MsdAQSdYQu1nX6NGEFWv+8E67CPAHo+c7TbiVXCh8tpLNyTnn1nALvAKfQiqWu+P0Wugbk71HMK+a0jDxW1j5VilO9owSBQKKO0PXi7njvKMGpo8SM5TQvH2Xdb6c4PS46SuS4xrEepy6tMUsgkKgjdI2YUwtfXmBIk6xhDcpxFWWlobCVpbS08ox0luDWqjid5XHKO5PWkqa0KuN+y8hjZeShTuSxsu63MOsZ1yBrHYFEHWFGCLu4sINigw9X7yrk1btfOa/crZV78GHOu8L9Wubgw13hfuW8sPudd/CdynO/ZexTmPOWOkqQpY5Aoo7QZWLOVjC26ybprXkw3rAf3V+vleJ+6a3V/DQ2rdvq/vVxyXOdHv/WpxwTVuY9R/Y1fD44c2zLxwemxWVV6C0pnTUvsnLY8kiwPc91+vwdJ5rM+dzKef7uPDbQk+8aZd1v1nPD8zQL5rEy8lAn8tisk1dBz+AQNMZGrNvnnraulLTOW70ODj33lHXbonWvynWNqNwj7yuBRB2hq8VdFFPXbot6Tl8dJv1KTK90sXJbMFAXFdwUa7+5jhVMX92D2f51jkyawg6v4eVM/zx/3/1jDWMi8tm9NRjwBSims1kgrShiZ/fVYNwXOfo9433M7a/nSiemZchP09Epk1O8BzyHS0jlrdBROMzv74ED4w2TJz+dNS9f5xnkf/coMzjt958Z5o0yOMXz4P1ONLlxH/Nzcor3g/wPj1vykM8Dbp/0z8/afBHweHzGyMfe0Yb1PcHnmuf0mE5XHsL8VcY7lSePZeajgSF4+Qf/CJ766z8xtq26+jdgri/GyuAUr/HTj3/YEI8L162Hk173NhrShECijkCCToboKFGg4JvvV1h7mmrlvWCgR1Q8WIkWqYCwklnonwuF10RDrdhRfKA4yZt23BcrV7lix0pjTigYD000C/GKViOs1DFdsniMBG4rHGOaxhtq5T3HP2/dv4e9o1OGwGmVU0zjoJ/eWf4yIlXss3yeB9HC2kJa8fnIQkbcry+URhtNwXWBxy+ez8LBujjfbv++5XMt8O8BWsi7eF8TPRxGpftFYYONBhS3o1PF7Er4zOb4omuu/ynnJRS4mH9b4TQSh3IewmeG+eGAz2kRoYxieOFA3ZnHWnmn5py2Dpa/6d2w/ftfSvLDWevhxNe+TXBga4i1AsyP83zx+LIP/BFs/HQiHvsXLIE17/rdXOmMhB11kiB0GjWigNBpcRdb6gosEIqW6Pfs0EKzzxc2aMUrcm7ULnv98xyeZDDfFw9YLuP6fhQkfoHf6vlQyODCIXDFCOudX0kO+xVQUR7GfNG526+IeVjBR+tjy1eL5xNWSC9JN55j18gUjDeLc4rC4KB/z/isempB2npCgdvq+cRx/clxCwd74JBfme8fa4prFUkr5p89PqdoucLnH60X4qPWOqdztPsd9PMQiicUtkWf/2H/njHPo7jvl/KYnO68Cz7reRKngbUy4KJR8J1qhJyilU7PY9G70cpyyhXvFla5SGyteufvCh6Qj6Kc4nPB5zOw6ixY5l8nwukf/COo+WIvu2zShRwJOwJZ6gjdbqkrIUg8soKhmwwrjcONcgczwAoCz40V3aEJ/7OvXthljC6oQHiU556JKkxMH1aQSHV/TrebaVELKvYjvqDFuggryjKBFSa6x+b4wubQZMBtXle2jqEetKRy8G8VDha0zupAYYjCG61qs3uDBgNer510eqHIRlGLz2UfWsNK5BQF925feKNbuME8YbVrl1NM36xetIBjg4ELYVsmsCEzELq3MS/MKfBOrf21P4INt34YVrzvD2Ef6yt10GF8V/E5LbjsnXD4+adgwVnrYdZJq3KnVZ0mjMp/Aok6QjeLu9A1wUoQNrN6PJhqQmE3lgsoGhrNJiye1SPa4UV0A1a6ttinsoCup8DF6RXiFjsioAtyZLIaTqd8EXKQNeGEwR6oewXd8P2B1atZUQgTcoB84rMrkk68T3SHFnW3u4BPCkUj5tOinKLgRjHfqGjAN4yFxXPj8y/yTtUGZsE5N3w+eKd4NZyiK//Uf3dzS++UENTCFElxdYTOg9yvhOqFnNZ6FS3YkhZ05zT8whNjlHgF/9AKNNsXDntC4VDM/diAwV4UtbyStA711YRl8UhBt96Y6CDAYKCnGk4xVmtuf03EABZ1laOQ6a174jlVkVbkoFbzxHWKunQx1gufURXpxDyFnGIemyjoKkc3tugwUK+GUzwvhjFgiEORdwo7MWy87T9A34Ftlb1TyOnWv7sedt3/zfyhIVJ5RzF1BLLUEbrRPKd89yDqKFHstMLlGlo+MFi8t1YvHCStWAFD19t+v6LEIHF0Hc0PA+VbBaYTLVSYZgzyx3ROlmReEjFU/T3CpRtZLNE1jUK3VeA50DqBRoae0BWL1qWyjA4Y94VuYhQfjbBTy8IwbrFV4L1GPaCxkwx+HyvJvITpQdcgWiz3hy7oo5OeyBOtArnD+8T7xY43eL+Yl5oluYsxTm/+QF1YFTGPIbeLB3vb4hTFfGShxR6xeLtHS3ynMJ4ShTJyirzgezG3zXfqhTs+CRMH98D2L9wGp//On8MRb0BwXAaiXs577/kKHHn+KbHMPm0dDJ60KkfeCax0ZKcjkKWO0MW6Tp/7FQoH3h+UrCcY/9ZT90TlXivYEQPCXn9YAWHlGwWJo2hoJ7h91D8Ol0jICnHop7OdThf6glaqRejG8kAJEj840V5w+8Gw52iUbuQZRUi9VrxzC/Ip4vWmgvg3XIefh9oIbkfLl3y/KDyH+oLeleAVS2dQoff4orhm5LF2LIt4f9H9ohUNecXOAoF1uVhaMYYSO4lE543yGD7/djozyJ138H4xf2FeLcophJ03MM/reSxKdyvLjru/BMMbHxFlySQKu6/eLnhop9OFvvTVg2FixrZshJ13Jz1sn/vHW4V1MK+lDuIyj6x1BLLUEbpc4BWdzgcr8YZ2/AG/9Y9xOlggNwrFP3kiLgmtaXqguBCPtWDYizyYCq2J3LIOrYtRxd4uMP4NK0jkQzZScFGxN2HRQH4rCHaO0DsbYDqRTxyOYpIV5zQSxjLQuoZ8YtxSHrDQ8iWnBp/3IV/IoHWlt95TqCMKWijx8Q6jMNbOE1gW65Dz8YvOBrr1EO8f7xcFbhFOMQl4nkk/j+p5DEUe5t/ZLVgWD1ryEOYrHMZlkS/IGiVwKizWljyGeSPvO3X0+Y2w6+4vq+XB04/Anvu/CYsv/iXo7yn+TjXHR+B5X8TJQPG49Y6/hFXv/8NsM6/EFXlgCSTqCN2q5uI2axH3K1aSONaVDlwTuUh7CpakWCkedXQUGB5nomLPcwnsNWu7T6zY0W3WXy+WTjz30dDtZgjKJopHJgaPzXO/I5bOJjy8B7zfopyithl2uHKFVajWk0ssHQqtpzowTxzxmOixWjStKHBteSwQj0GHlDzPRlgTLfc7LAR3T+F0YpvDlccwX/SGnV4yhVJKHsJtmIeKphUFblYey7xfX2y98Llbrdte+tbfw9Cqs2Agh4s067m98LnbxLWMvPf0T3zx+C04wRePWQ1X4YIlRUfoMMj9SuiQnlPj6oq4X8eFu8b+D2OCyuiAEQSb2/81OMvthpti7rROFewkkO8aLOc5eOFz5LkG4/Zr4Pq8fIw33fc7WdLzn0y5xniTdfR+s9zQac8/b6eJMvJQJ/LY2I4tVrEVi2VfdJXSAev5p9yNioxreFabKoFAljpCtwk7SdxxaH8y+6wpxkqbfDztGiL9Xo7ztH+NMvjIOx1b5v2Wks4OcFpaWovnsbLut9A1cuaxMvJQJ/JYnu4H1Y8kkoPTqEMYjVNHIFFH6EYxB5bBh9sdSyvrsDLGv+M50lD0OrystPLi6czao+p0lsYp70xac3HaofstI4+VkYc6kccY78zzL8KpPPcr6TkCiTpCF6o6+5Am7Ra9WceWUaRH7uF205AnLVnXKIOP3OnkHeAUOsBpB9PaqfstdA1ePK28g+9U4cYWQEeGEsk01IE8ADFJOwKJOkK36TowBx9ut6NE1hRjrAPuN8bzXSfLVVhKWlP44HnTCdVzyngHOOXVc5qXj7Lut8g18uaxMvJQJ/IYz8l71WAtThdGIJCoI3SvwIs7SrTpfs20gBQv1VmWVSHn4KI88xrluLXSrSy8+P2Wkc4MzsrglEP1nOblo6z7LXKNvHmsjDzUiTyWtQ8PO6ZUiUw+pHg6AoFEHaGb1ZziiGi7o4QIuOaFWvN5Ko/Ua0D+Dgjp1yjekk/jI8vilPt+S7PUVMwpLzOovxgfZd1vsWvk7XxSPA91Io/lcr92QEvluUbkgiVjHYFEHaEL9Zyto0Q1VpTS3G8Z21nBSqhUt1bKttzut27gFKrnFEritIznXyanvGpOeTmcZqFy92sGpx4ATRFGIFFHmDniDhdWwEnSkY4SWZU6HB9B/a10PqiaU9YlnOblo6z7LXKNMp7/tOp8kqP3awc0XfY1yAVLIFFH6Fohp30mrf8CQ5qkBlyXNKRFxvhfrKACKXX4DV7sGp3hlHcFp3n5KO1+C12j+POfVpxmxdRB9UOaZKXVGNKE/K8EEnWE7lJ1nnWcOl6R+5V3wP2WP1Yt4xodcL9yPk045d3BaV4+yrrfQtco4flPN06hA8+/aDrIBUsgUUeYIfrOy1U5Z1ZkvL1KvxULSObMBQUL/6CnXhkdJdKHo+Al3W8plXrlnJY4plpBPsq630LXyJnHyshDnchjPMcO08L9GjZmyUZHIFFH6E4xpwu6IjNKQPqwBWWNfp91DVZwWiOsbMtJq5uP3DMK5LjfomCcd4BTqJzTvHyUdb9FrpE3j5WRhzqRx3iO+zjW7leIBx1Oyj4CgUQdoXsFHsacQJEhTap3FbIS3Vqp16jYrZnXxcf4NHBpl8Ap551zFXfqfotcI28eKyMPdSKPTQv3aw4+vFDYkQuWQKKOMCMgWv9FKrK0gOuS0pc5c0GOJnjmaP8VpxWHKGPThVPeAU69zjx/1sH7LXQNKP78pxWnecTjdCq7qJMEgUQdoRsRDWVSRuu/t+7BlMNv1V/3Smmp99Y8mHBUIj3+tpqX7zq4ry2tyESPV45Voe6nZcpR3eF95EqnnxbX/eY9RxaQM/9U0OS2e0hmGslCn7/zRJM780Ypz7+EPOaFA88yx/3mzUNZnJaRx3pr7vvtKen51z23MMubx3pPPRP6VpwJk1ufNu93YAgGL7yqlLTOfv074OiP7rBum/OmD6ReQ533NVpDIJCoI3SxwMuKWcqqHGwVe49/3mA9g0aB5joKjwG/NhzoqcGodiIsngfqXu60owBo+oW7rkHw/IiRqWJ2Bbzf3jr4FbIHDa2m6fNvpF7LN/0S1kH9fprGGtzgGu9hkjGYahZ55gFvyCneM9c47ceE5mQV7xkfi36/mE48y5i/sUisWm8tEHVpeSzv8x/w72vElod8Hhp+Il3iNC8wH/ULPrhhPcJtQlvkSCvSj8JqUiMO1/lJhXH/nWoWyKp4fkxnWh7Ly+m8d/w+7Lv9d4CPjyjr5/vrmb/u0Df/ytjWkqC74gMw9PrrfOG40RCPc/xtPUtX5HyngqFNyFhHIFFH6GpBJ1rrBUfTx8oGKzK5osEKAwVDswT/C5570K/NUBhNShXvoF/jtxq3g4JlVBJvvaHJ4sgkKyWdfWFlyaaSwPtaKHxb4RgtfihopqT77fc5wAq9iKBTOQ1EyHiDK8/NZdFycuof05jkimhAWvH5F+18gBoMrVb9ofCK8lMkfFs5fyRm9ftFjosKOsRRn4O4AaLlMXyeraS1LxKHch6qlfNOCRHOuEinLY+19E71D8G8634fhj9/kyLEUNAN3/GJQoIOceBv/0Ccb65/jf2fSsRj/+kXwsBFV2VyaoxTRyCQqCN0lZCzrCsjoFmIJd4U5+kTFpFmaUHSWOcc9ZUMWloClyEX1/DaSLcHEFsQa6GoHZ0qL/IHxUGDBRaksdAq1F+vt8VFXy2q2IP7Daxe5ZCKpxmZCs6L1h8UTujaq7fphhzoSe635tUKWz1l4Kma/p/AChacdzAwe7ZsX8b7q9e44LUntIY1S5zLCi1f2MhBITfp5zG8Xl+bLlPxTjWaoVCuiXegLOCjOjrZFI2lhhf0IO1v853qOfVMmPW6d8Doj++APl9sNYf3wtG7PltaWvFcaKWb80v/CQ5/9RNQm7cYZvvf86aTxqkjkKgjdLGq86xzv5ZR6GGlMOFXahONasKjUTRgRdwjrFhe22nuEWIpcMVONMov7tEViUKhJ7TQBG63djkNXGSTDVZJxTQRclqLxEeb56mFrlDUHVU8f3xWYz6n9dCNHfXabgd4n/h8UNhV0TsTrcnY+MBnH7gy235Vg3fKF4dVvVPYoIneqZ4Cz3/wdddB89AemPLF1+Qzj5bPqX/Oxu4t0P+KS2Dgwqv8VsRQa2mN4+rIXkcgUUfoWn0Xul+hnLGvRDB4DSu1ClvGXuDuLZpetKSwZoXTGIWVes0rfo0+IZZZZZxygDA2rdj8mHi/TY9Ds0KzSCSWSuG0ySq14PSWwCneb48WdlBBO6+Ud2rwDR+A5p2fAHZobzXp9IVc/wVXQW3JitxpVdyvFFBHIFFH6HZBJyp1Xt54UvXQYoOupzJtC1EAf90rL6392MsQrQCs3AozstC048qyVuwQBPOja7dZogj1QuHRG5oSyzgzigM8HYqQMllFDjDeq1YSp1F+wnQ2Shb2yAFaA8viFK1oXhgywKfzO9U/C2a/93oYv/+rYikTfWdfAoNv/AB4/jXyppVPjBrC7sQTl1LhTyBRR+gerDvrLPiKtm5y20aorziz1Ja/qDBDF1dZIgm88se9QndevxdWmCVUbChoIzdW2baVyL05VQKnQeeNIEaxbE5r4fNCTsvQy8hnX9ihpey0oqj1WNBZoGhSvUh4VsBp0MmjPGFf5TvV99rroH7qmTB655/7wqpYRwmvfwgG3vhr0OuLulbfKfbiZuXZ4LEDAwNUCRBI1BG6B4uXLNEqC18oPPMoDPgFcdnorQWVUbPgkCa90VAg1XlKRQU3VTDGqrcWuFt5hcPo94TxZEXEcuRuEwNXVOh/DIZfKXaNoPNGtZwKbZMyFl4rortqTvvqQSeHIt7YuhfkoyrfqdryM2DoP/0ljH/7r2OLWeuCblYgEJesaOv5s+cfMzL+ihUrqRIgkKgjdA+WLF4Mq1atgi1btsTrmru3igDnnhKtdbJFoF4vdo5O9VxDoVMUnUhrNETK8ZDW44VT7zjiVHQWOQ7Sie7YgV/+r8eEUxSS/PkNxvqVK1dW2kAgEEjUETqOyy67DD7zmc8o68Z/8I8w69dvJXIIBMLxjx9/GUCLqTvnnHOIFwKJOkL34dJLL4U77rgDRkZG4g4TbM9WmPjOp6Hvyv9IBBEIhOMW3uYHATY9aPR8JVFHIFFH6EoMDQ3BW9/6VvjKV9QuE42NP8biD3qu/DCRRCAQjjvUnrwHvPu/HLtsI2H3spe9DFauINcrgUQdoUvxjne8Ax599FHYunVrXPghmht/BPylTVB/84fBW/ZyIopAIEx/MbfzF1D/6bfA2/GMCJCUxRv2eH37268mkggk6gjdjRtvvAF++7d/B0ZH1d5p/PA+aN7xcfDmLQZv9fmiFxosOyPengxx52m/beu8HMd58YcHrnXu8+RKU85z57qe5Vyt3UvZ69LTbz228HptW9pxOtrpj8DTN3Lnflz9xs1txda7983er6J1zt/uda1fT+K1pevlSXdKmqTf9V3Piri52s5nwNv/InDGDAsdCrr3v//94pOsdAQSdYSuxtCsIbjhhhvgE5/4BOzbty8uDGP44g42fD9QLI9+Q4w/Fm33wu/6IqYhw+21YB5J27ZarZbsp22vyeewbHNdI8+x0RRpuY4Nt4N+j+E6a1qk7a5j0tJgO8a5znXNHMfJ2+VnqTxX2zHgJXpM26afB6TK1chXusazbEurgKNt+j74m0sjacezOfBE9Mm/9e/yeY3vtmNCEeHaznCe2rzH6et4MOevnj6etQ7PE91veI606zDpevJ2kM7NXdfTthvns2xzHZt2XXGstN2VZs9ioXvf+94PS5cuJUFHODYWZKKA0GlgF//bbrsNzjzzTNOA4rntLkpF7KjIM7dlXEPZlnEeT9/W5rHWNGeIENtvTzufp99n1jFZ61zHy2LLIcDaEnTydVMEpJKejPUo7muRMNUW27bc59YaDfF3/belEeDiBCzPwnYesOTD1OO0dZCWjx151zhP2jHadWzvSmbezfuutPCepZULWYZeW/pQyKGFDj8JBLLUEWaWxW5oCG64/nr44Y9+BHfeeSfs3bevZcuKs+DOK45aEYYtiM9Wj82qICGtgrRUVGkVZGqlmmddxr5OUVhA0MX7WwSiyzKXx1rXal5Dy4u+TV8nrDdoofGSierl37bv+nl0C4/nOJa7tku9L/V94zxhO166dsR1nBbtmDgfS2mNZlBwbtesWvrvtPO1cmzWvkoPVS3Neu/VtPRF6B8YgAsvuBAuvPBCcrkSSNQRZjYuueQSsfzIF3c//em/wb/99LHsVnMJwsxrYVsRq2CWBaOoda5Va1+aIGxpnct6Z7OyOZ5hWYIuj5izCTV1LmLTreo6zhBy2r6GwAoFUR5hp6fNEIm6OMkp5tLW6UIqTczpx1j3b0Ecpokq47fl3E5BliUw5e1pYjLlGitOPRXWrl0L69adTVOBEUjUEQiKuHv9631x93pRjG7buhVGx0bF96Buk11OkERZRd89L9YOHkj7WD9BOW9weLw20SC6oEguaF0nV/08YzvYzutQY57luhzStwdp8Mwza50KuGV7cg3LnkYaPGm7dgFunjMtXeoxRpUMesq5hTfXeuVc3LklXqPoOylWLj6Cy8dy0Ge+ikUI1zpMaOcO9lPPp4gsxTLGpdXcSB9zHCefTz+Ou9Y5jwm6EtjWqfctdSPJcwxXujKEl+ba+dR1XO7RwKVYRkvnhiAcjivPT30e3Ng/a9vy5ac6GwQEAok6AkHCihUr7OKtpe+yeCv6vTW0U8jbevgV2beMfdK223oJFtnGHV/sp8no/dnqekPocYcA5Ln25Zr4a32dTRDaBGbOdbn20XiyrXPswy03oPOi72P+NkWa+dsmoi2/Ia13bNbxupg2f5OII0xnUEcJAoFAIBAIBBJ1BAKBQCAQCAQSdQQCgUAgEAgEEnUEAoFAIBAIBBJ1BAKBQCAQCCTqCAQCgUAgEAgk6ggEAoFAIBAIJOoIBAKBQCAQCCTqCAQCgUAgEEjUEQgEAoFAIBBI1BEIBAKBQCAQSNQRCAQCgUAgEEjUEQgEAoFAIJCoIxAIBAKBQCCQqCMQCAQCgUAgkKgjEAgEAoFAIJCoIxAIBAKBQCBRRyAQCAQCgUCYzughCgjTC9xfPPA8D2pe8BkstfAT4nXBftrRHM/AxRcuFgg/WfipL0zaT92H4Sfj5jrcj+nrcN/g+FqtBgMDA7Bo0ULo6+s7pmw2m8xPHxO0Ct5qAa8Rx/g74jRA8Bv5EEzGn+oCTp6YgzvmXheu13mUuR30+Zw9e7bg9Vgi4qxeqxv5Mc6X+BnnTU/K2SJzBvxBcm/g4MvFLdf2ZQZflvzJmMJnb08v9Pf3QU9v77GtgHp6oL+vX6Qlzo/gWTgVOTP8DEoJ4DKnTHrXk/sGLd+xiENmy7/M4JAZfDNtXVJ+BI+e7CQEEnUEgqiYkkoTC2xPqg+jylOtQHVRFxSsYSEfr1MrQxYWxIyFBbz0O14fV4BhwR79ZiyuIONPllQawf7RuQ7CSy/t8IXIEKxatdKvtPo7ymej0YDJiUnxvVYLRDF+AvP8/5FITviVeQ6eA3LnCT4514Uzt/Lp+ox51D8dfEYVq/gebhs5ehT27N0Lg4ODcNKJSzsu7lA8BA2NmpIHA27lRkeyzpY/ZYFck3j0kC+PSQKsJrjzUJB7kniJxAyX+dW5C/nX+JXz8cT4BBw+wsT9zF8wXwirTqJer8PQ0Cz/un1x3hQc1qLGXOt8mg0y5syj+rvPYs6Zzzke6/nPA59L0CjCSzHxxwu2JzI9aOCwRDDW6j2iYUcgHAtQziMcczSbDb8wbcYWDFEwg2Rp0wrupBAORVVcoUXfo4Kcx9Ymo+APrXnxdukzthjGVpXw+NiSGBbkuoVRUj/RvoePHIEnn9oIIyOjHeNzdHQMxkZHBaf2Si+pDCOu8vIZ8SDzKD831bqXiBGwiBLDxCpzJ2/nybqRkRH4xS+egwMHD3ZO0IWVNkT5RrtnW8NB5i+xpjGVR93SG+dTSPIocMkaBVqedHGn8qqs4+rzaPjv3t49ewWvnUJvXy/MnTMHent6VGGmWNjz8ekWdPp7n7zjckaU33nl3ZffeSn/cc2nIK8LhB+HqalJmJqcpIKdQJY6wsxDY2pKtHBrgXkuLHQ90SzmtbCoZP7/WmBP8kI3h1yXJe5CMEWcJA7lyhPiyhMUgacU9lwr7Hki9JQCXSvYdasKWs02bnwazjrrDBgaGqpY0I3ChF+h1EI3UHAPgcMKdUlN+i5z2RKfcoXJdDFiqzw1t7gsjyMXZMydjVdd4HHYvu1FqNXqMG/u3MotyLigtQgtl0GaZD6VvZV2csIn1yxLkqjWXIFgyaOyy5ZLgkMWHml5Um50aLIlzqT79+8X5xiaXW3+RHfroLCyhvfmSe+8keaIzyAPt8On0uCwiWe90cG51ujQGnHSp54nZXJRLOM5jrV7m0CWOgKhc4LOFzu4KJUWt1lBwoI6bp0nrhTZvaKuDxcp3gh4WmEPZmEPehyUXK2alhC1sOdKYY+F/M83bQ7utyJM+QJ5bGxcEkruODiZS523dD7tHKp8ahYnzq3uQ5vAi/njFoGn1KMctm3dBs1ms1ILHT4v+V5Ay5PMGqNp5k/TBRi5SE1rn/LcdAuo/q7Iec4l7Czc2Roi+/bvg8kKLUzoQkV3K7e9b6l8ciefiRuaOeMSnRZlMPOq3IjjeiMus9EhvfP4PjamKs2fBAKJOsK0ARduiikw3a3ad6ngtrpeo0qUc8NlqFe0VrGoCxKtMJcL9diNJVfutoqSg7WwHx8fhz179lTG6ZEjRzLvT+ZC5pNJFSNL5ZMZ59Dd2gafihVEtcwp4k2x2FkEnryeg6gwX3zxpUpFst3dypzCzpU/FUFnEx2cWdyxadzKjQruttRZ4r/UbKn+Hj44XBmfvb09kvVXbmi0yacc55oi6FR3rNngcL77eiOOc2sjThbOemNwcmKCCntCR0HuV8IxAVbIgVsrdK9gB03RxAhcr+hurcVVAAt6xEES0h95FT1ZWNlchqG7UHHPOGOZNFEJkhtGE3Jcty4phb32W7KSvPjiDjj55JMrsno2g84QhntQdRWKDiU1zf0aVlKRa6t1PsHq+lJ5Ba3ylCp2G6cAiotMsfaFFefw8DCsWHFqJY0OzKMYuG93t0oPNQoP0EMDtPyZcOruVaxyCJo7NssCyrM/eSLwzHjHIGYR8xK6SUu3IPiZTnHNK25+yXVdGZ/5LMrJO87tjTie0YiThDOWcdgDPXgvCQQSdYRuFXXCDZm0kKPelklpqMbRRV849ogLe2ViD1luVsfasCbgEBmguWOllrvN1QZq3JIpPFyFverqQWsdLmX33hwfnwjTmnAYdAT2YtHM4h7EYR3qBfFhMZ9S3FIuPkGPBwNrZwwnn8Dt4piDJPJM4aG4tVlDWCjnzJlTeqND9EoVeUzNk7V4UA2uCBGDz5T8CcA1tx93i2KrOxZMbpW8l9dixw3hPDY2VjqfUW9QcX81KU/WZKEsC7tA0dn4NGI+AZS8lxZfp1uYrRZl2fJme/chXyMufFp+WTcFtWM8tBGBRB2BUK2oY4k7NGlxq4HmUUUZjnEC4dgOwVADUelumlhMq4RDvOkVphrLlGFVij+1DgBpAi88HwqwskUd9iCWKyiQxpoDxbrkxUs8ZIkQyuFBnrY72PgEbXy/pMJ0uX8VPuXzGUJPdrEmQsNusQs+sbdv2SJEuPxkPkMkIi/ikml8mvnTU+kEo4ewy7LpHFsxFCwWq5ItrxrvhNwbFEwXbBAWUS688PljXJ3CqVXYeXEDQ8mfEZ88B5/gFnRO97aWF13CmCuW0fRGHIQWbAKBRB2huxEWrrWwNklcW7KwC61Hkfs1HocuGoGU61WmJBDtcTOugYbVWCc9yFqPq+PphbpL4AHo3SxKA7peZT6TelrtQRjxE1vspH2jMf6k4V2dvWBdfNrd2ynWJ0N0cK3ytAs5+TMQtGXnz+iZJ/kxsBCxwHrk/1Pc2TGfZv40BrrhNguoKZDd1ibV6umyKBuc6kJOsdjJw6hU9MpDJPy1UG5N2NnyZ+t8glvQsfwWerD2LnbF1nGjx7LIQYw6SxBI1BG6XtOpPcXUgp0FVo+aJ7lfQ9eWF9SuHo9GyeWaZUkt2F2td9PdBVqlCUalCQ7rk7NQ1wWeHKReAZ9KpSzxiRVaNKhzEqfEY8tSMANC6P72FCJTLHWO+DqWwqFs9WRciVVKrzyzhF1FAiSO7UwaHjF/nh73pfEp5U9PbnI4LEtRfgRdIOvxYLoIAbAKEkUoagJZXqmMAwkV5k8AiU+HsPNUcZzGp2Gps1rnIZdAVsddBDM/aqEBal5Nd70SCCTqCDND1IFlAFo9QDrxxIBsk4vGCvOU2tK00iXWAT3ey9FD1HDNugt7sBT2aqwYt4wzBnIUWbUiWasoY6NdODtB1PEkdnGF0sM2bl27fJo9mXWXIRg82yrPPAKvKkudHlOnuKctfNrypxnYbxd2shXUJUBkt6thFbValE3eeJZLuyLLvLi3uLFhEXaSoPZ4Ml2d56XwmSKUs+PrpCnBnDGMelydnE9Be/e59O5DvJD3lUCijjAjLHWBuxAMYSfVjpDEKoXT9vBo/seoU4CtSgBtXkhuab3nrDDBIfK4WdiDJA5Vd5dW2FdkWbLyaUhpL3YPCj5Dd5YHKR0livCZd0mpPI2BeA3LEq+ETzOmjmtCxMJnZv6UhIfBZ7pQ1ud1lYcDcbpj9Rkq8lg+eRV8Sue1Cjv1XZfFcpQ/s/jULZ/p8XX2eXINHnH6Qr1zFYDdwin18JFFnkcWOwKJOsIMUHVBHJtfqNf0ShJqifUjaqlHwi6cgzMI/eL22gPAPmWVPBZaGEMXFcDOCpOpBbzTxWURJBxs493xjvGJ16pFfIZB6oF7K3FtcfDa5zN2v5odJ2wVpjyWmE2E2F1cunVJs4JUxWh0H6ENE4fSEPOShq2OKD/m4TMQJlzl0zJ7iToYbrYAcYUJcCu35hRk3CXwqsqfFqt8LQq18Dyr69XFp9TcsFvqMizKzvxp9PBWexeb3ILFAmoObEwgkKgjdL2lTgiCWiBE4inAxDAmLLZ4qK7XSEDorlfVD8u5ZmGSp1SSLHDbt22Dxx/fAAsXLYRXvepVlgI+zR3LzaEkNCudywpSibeQg8RnNAyEF7qzWTgherKv54FiAcnDJ05B9vNNm2Cbz9tm/1PuXbt8+XJYtmw5nHPOOTAwOOgQIBnxTDZu9YGg5cGqZZFXhaVOBNGxJNDLMn5aNp+eZU5Rt8XOjK9LFyCy25XJQlhvZLjiO7ktT1eikU0/pB4eAKA0PrL51Dk1+cS8Ojo6Eq8/fe3pqstVy38sJfTCJYrT8mpVlmQCgUQdYfqJujDGRq84k1GGTQud4doyAvtTBF1YsT3w4IPw4AMPwjPPbBbb1voF/fqL1qe6Bdsv7C2FPK+aT0hc2HrcV8QnVy2eXgqfm3wBd9dd34fHHnvMef3NmzfH31/16lfDdb9ynRi2JVWAWLlOBAnT+bS5Catyv7rckFl8GvmTG+rma1//Gnz9a19rO22veMUr4Dd+40Op7m3g9gGMbXnUsChXFPOpO691Ee1JkYlpfJodJdTYSjwW8+z/+B9/Zr3WW9/6S3DVVVe533HdKs/cVk+Xla4TnaMIBBJ1hOkj6sBeaSbjDEctdknYyUIkEnncrDz07/iJVqa7774bHnzwATF5uVGl5I0HU9yxaqVpL+xVq1JV7i3ZtWznE5S4L5nPKK0uPm+77daW0vLwQw/BExs2wO/+3u/BKSefYuUTstyxTLZ62jqx8IqH4AjS7IEe9ZXNZ1b+xDlri+DFF190CxBHnB23WJJsDY4q+YzaHDVFyNXidz0vnxyy3vn0fJEphBnLHvzZ6o4FM69SL1gCiTrCTLLUJVF0SWs9aJ6rY6rFQdOcS1MHeQ65mHh6tm3fBj8QYu7B1PQwqWDPU2EmBTxrubCvqvdrJEI8TRiLkfk9TxUjUX/XyLWVwueiRSf4QnhfS+nBWQn+79/8Dfy3//YH0C9b7BhrvdcsOHis1J2djKnGJD4hlc88+ROEO7AI3vPeX03nU7Y8QTqntrxazfsOKp9x3mThzBGQwaeX0oHD0pmH8QyBqTbgILOzD7h7dLss9BVa5gkEEnWEaSfqcHJuL5R0TGqtx4V6KO68uMUejUgfniQlsB9FHC6RizXbahjGLMmCM6vCdMTZpQ3pUek4ddhTrxZKZK4FfoWD4nKFT9Bcr3Y+X/ay030u97WcpgMHDsB9990Lb3rzW1L4tPU2Bsd3i9WTQzVjRkgxiqA1NNx85sufRVJ79tlnw+rVq618Mmc8KKQPQWMIvGpUXcynxqXcmHPzyeOQAk+Pq+OaZR7Se/DK3LA8IRc6p8w+aLER90mWOgKJOsKMstSxsKCOYurCAll2x4jKICzoI4EXlOyeU9N9+q//CjZs2NByhZM9nISlwmQ5CnvQg/yr0CBmjKLuyo5cWyqfoUUhhU/s/JBl6XThySefhCve9Ob8AsRwbyeWF7uVrhN8gtJhJ53PaC5jz6neFi1c1Ha6rr7m2mxBx1I6pthEiOyOrWocxUhoSUMWWa1zXjaf+hOXO2EoY0impIYJC7ulAQfgzJPC0mjMNuHuZUu9Xwkk6ggzSdUpLetwtsfYOqeIu9gHy8PAaS8ZIsEzrXRr165tTdQBKC4Y3R3DUmPqHAU82Ce5r6x3oebOjvgEhU8AacTh3Hy+4hXnwKJFi0QsIgq89etfJTgeHBwU6+6886vws5/9zJqul156qX0BAjzVChpb0yrhEzQ+1dCALD7lOXh1BYLcoTtbreyDH+i2xpg5G9785rfAgvnzc/FpmwaP53HHdip/hkPExNY5UAcXb4XP5EN+31hmgzIWcYYFGQwBp8xKAQ4rH7isnqTqCCTqCF0OphXyyYSPievVaLHLliWHNQTPib0D77jjjpatCLbA6dQKE+zzxrK0CrTCjhJRTB2UzCfiV37lOli2bBksXLgwtobg9RYsWAC/8aEPwZ/ddpsQcGnPGvIIEND4TBEhjPPKLEtg8AlGaEC7fK5fv14sMr/R5+c//zmrqEPeX/e61+VqcBjz8KYNbOwIGaiET188ebUkNIBHnd41V3YrfMrcyd9ZTveryyIPOQbTdrm0QR/smTQdgUQdofsNdWEh7yUTPhqu13jE/sQFy6VYHM/R23P+goXCmvTIIw/ntxrq7hemVXqpFWbewp5X2lFCxNQ5+BQWD41HL7bOeal8IjCWS7ZoxtcM+UPR4RJ1MX+QQ4A4XV/cPfF6FfkT8vGZWJTU/OmBO66Ly/lO+o5i7pFHHrEec8Wb3qR2OHH0yrbymeLGjiydvOq5iSM+mBoaEHOnubLz8olWYpsIHh0bc6bl0Ud/As8++yzYxmL80L//sEP4pudJl1ubc5onjECijjAzVJ3qfpV7akJSYXqQuGCDijQZT42Do/er//8tV74lFnUoSC66aD388If3hYW53ZoEmvvFFBmuChOMwh5SAqmrqjUN95bGp2wJ0V2vEBtBLP5Xx1hgXBIm2CnCBrTkBbwwSwB/hgDJaRWprKNETj5t+ZN7Opdq/kxoTe7tn//5TmtSsGPEBedfEDQ8API3OGwCBPK4uKtpxOl8SlNIQBwpoOfPDD4ffvhh4bJuBZhXXfl1bHQU+vsHrPw6Y2/BtNAz6ihBIFFHmElg2hAcurjTW+x6UH/QGc5hWUK34PwFYoDWk085GRYuCFyGKOrSrAg2qxpz/LaKOLC4YDWrHqvIsiTzGbu38vIZWus81Y6k8Kn/1gWdy0p32mmnCS5aiVe0u8UcFWaFQ5q0zWfc6STFUqcF9v8kth6ZeOMVb0oZdgNyCzprWIDV9VqV+5WLGWPK5LNVQZeFHTt2wMqVqxyNEO58x+1TiHHqKEEgUUeYKYY61b3FY1EBiqXO6tqSK0R9vibpHGetWxfHRqXGtlh7v2UsLE10qIW93mOumjqTqXxKHOqWJZtrS3EFRp1TTJudIejw8+tf+xdnus4448wW4xWzBQhYfpdvqOPt86lz6cif0ToUJv/6ve850/KVL38Jzj//Arj44otjFyy00OAwBEjqwLu8KsNnmEfDeV5lDtvls6pySRPINn4NPpnq0lY7RpGqI5CoI3S/qtPcMcEfe4td+o2HamIk1bIkC8AUNWW6Xy3uLchXYYI1/kaKZ6qGzoTPFFehHEvnScPIgIVTbhMjmoXpueeeg6eeesqaJnS9nnHGGW7+IL8A0StM0CZdn1Z8ZuVPjeMf/vCHTncg4uDBg3D33XfB/ff/GD70oX8PJ554Urq1LYtP5nJpd2Zw7NhSFzXkCvBZjaizCGTgOd5xbbow6TeBQKKO0NVgkTvGk8VcOC2YpcWuBPVzM/rLqDR1cZJS+cuCS5+g24wBgzYrTOncVVWaMZ/pruyoMuXyAMVhhctb4BMtTF/+8pecabrqqrdaehNCxniALFWgqJWuGudXtqprm08HlzZhd8AXbD/+8Y9yJWl8fBz+9m//L/zmb/02zJ83zz7LAcvPpxEWIA/oXIGpLhiX0mLtBMt7n5PPBQsW+qL3QGnJXLr0RLfFE9xxswmftqFkqLwnkKgjdL2hLikog4nRQ3EHcoUJSq9NAFAGH+ZpZhawuwxdNU4Q9wWp8TFMK8xzVZh6q7+yIU0Sd6UXTf0liZE011a7fH7lK18WViQbVq1aBS9/+RkpVg4WWkehZQFiG3utfA0Snh+8tvjkaW5CKR8+9eSTLcWFobC7954fwDXXXKvxl7/BYRMg0FE+QYi4xJWqv/f5+Txr3VkiDk5vgYyPjyXrNcxfsECM95c0UJKD+/v7Mwcid8fNMntvd1J1BBJ1hJkg6uJpwrg8kbdeYYa9XL2otZ7MNJFqqeNRZaEW2lkiE2zu1xZj7JheQcq/q4pZwtEi4mnXQBJ3NounxmdQe7r55HLVHPx+4IH7YePGjda0DAwMwHve816pg0SJfFr2g8r45KDIjrx8evbhYUxOObzylecLF/ZJJ58U3wdanh577DHn8Y8//riYek0IECO+DloWdHqIQFWDDws+47jERNwV4fNtv/Q2JY9GgvT5558Tcw/bcN5558Fll13uyJtM6tBjb3BA+K45exQzm0ubQCBRR+h2S13ojolcMEmLXbXQedGwD15YzHNNwGUE9ke/XWVrUJkxJR4GXBN5M57q8sqqMCuLqWManwGBYlJ507Wl8RkSlD6xUkLWzp074Vvf+qZz32uv/eXE4gGqdS4zXjEnn1BxDBjo+TPky8vDJ4fMjhIRp/0D/fC+971P63wCQnT83d/9HQwP2y2h+AxWnLoifRDhlgSdNMMCVDiXrmHtDPmUXbAF+FSeXUZalCn85Pdbm10jq5NJIITVd1yfH5pAIFFHmDGWOnsniWCA18AiJ7fWw/VRGa8JN3BY6tKHajAtHTxjXkd3nFdGhVlVTB1Y+IynPtctIKr1I7Z+gnWUOuXL2Ni4mPXAhXPPPQ9e9rKXt8cn5Bcg+mwJ1fMpb/ESoeG582d6RwnTkizn1Xnz5sGVV14JX/ziPzlEPFNDBlwzRbTKZ1W9syM+Q1c2j7OclE+5V5jPuJGWOqOEFG7hasRBRoMD0scBNGafIBBI1BG63lIXVfAejy1LatA0hK6acLT5sBKNh1azjFSntIu5uoZnWbrAPtWPrddb1HpPfuerMCuLqWMsm894OiYuubUTM10ePnEEf1cc3fz588X8pHqFWSmfVcWAyZYlJ59BLkzLny6BI2fI5Lc6XMzSpUvT06dZkyBz+qs8fLKK+OSSpS6aPSJP/myBT/mdzxB1aeEWzk5OGmeQMoWYzCfF1BFI1BFmhqUunCbMS5rtcYUlu2TEunj4g8hE57krH/8E9957r7/ckystW7ZsgZtvvlFZd+GFF8Eb33hF9jyZudxdUoXJqhuxX+UzMS9xDoogsbmys/hEPPTQQ/Dznz/tTMPw8DDcdtufGuvnzZsPv/lbv2W12nHngLosN5/VxYBFlqUMPtvIn6aBKckXkUsQXaxpli9rKIBVMPNpxidI1nhTMEf505NjAtL41K31mXFs3BJuYc+bsvvVzqc5Q4o57h+JOgKJOsIMtNTFhX1sMeKJ4IvcsAC5OkqkVYh5sHv3LqMwT3VvQV5BxzvIpxyvmFhIZD6TWKV0Pre88AJ897vfaStthw4NW+LryuOzstlfY6GQn8+s/IkYGx+H8bFxYdnkjqnYsPemawYUxNw5c838CWU0OKrsoS1PCwiSUJYtdK3zqfeDioZoSdN/jGnxdLb4uozZO9LnNOaVjqNIIJCoI0wvURcG9nOPO1rsQWkuF/RR8RjPB5lyfqwUS0lj2qCjmfF1lgqzwnHqWuITAvEXrPVSO0rgMBpf+tIXSxGdlfBZUe/XtvnMyJ/f88Xxhg0b4MQTT4QVK1fCyhUrxUwRkbVp8+ZN8MQTTwjebViyZCnMnTvXHTLgiglj+fisbO7XVD41YZfGp2PQOlkg9/f1iV7YNg7nijH+uCnmwOHOhhwCDrizkwRZ6ggk6ggzwlIXuWP0JnhiAYlilYJYnDiGyUsKSWtgPxQPY+EWt4s84TmXtrG06a+0CpNVNgOCg089xk7mk4d8hr9ddSYKOpfAyAt9SAgbn6p7yzH9lZVPXimfUexXbj4d+TOy0m3atEl837Vrl1geefjhltJ2wQUXmDF0YPbWhjYEMqt0cGwWDt6sCjuVT3kYEwef3PLOyx0lQuH7X3///xc/0OqO+fdU7C0cCjhMi03M6T1go/cbcjQ4ICW+jkAgUUfoelEnt9yDcjyKX1IFSdRab6WjBPYeLJjCdJchpLhk5HXMVvh3mE9JiFj5DLlO3IoJnnhiA2zduqUcq6crGB3SXFyQLuh4dTNKGJalvHym5M9NP99USCAvX34qnHXWOnveNIbkgPT5dh188qpmlJAGx1ZdrTKfwc55+VQsdFLmlWfGWLxkidX6BtKMJHk79eQRcKq7mzpKEEjUEWYAGGfKYLmqBQSkYQ0SV0zkJoya7O5AdPBb5aeKwH1jg22NOXYHrF69xhk4XTQerBo+NcuSVnF6FtdWHj6Rx1NXrHDQl4/PuXPnOWfsyMcnpAiQ6mZAqILPXbvbj/Vc4ouTq6+5xmplkiePd425lqfBUfmQOyXzaRVz8m9t6rNMMSfxCc5GR0aDI25kMbLUEUjUEWagpU4KPtcFXuwalCxJxm9Lq33durPF4gpEl9fr7hd1mA1b4Q5Ga10f3iBtuIPKY+okXnTLiJXPkFMbn3PmzoX3vudXTatIq3wyaUy5DD5bi6/rQExdq3ym5M/du3a3lZ41a9bCW97yFujr6zO4A23MPoNLyBn/dQxi6ozPFvnUrXJ6HjW+u/Knzl2a+xXSGxzUUYJAoo4wI0WdEbOE/+M5Hz21tW7tKMFTLQPWVrxU0NsKdrmAT60sHTFMLFfvw87yqY8LZvAZd5SY3nxa+a2oR3EhPlPy58UXXyxm29i2bRtMTGS7YdesWSOmElu2bLlmfQNDfOSJr8scX41VM1cpT7Ek21zZrb7vzgaH3tAAqeOCzTJnnWEiiflsN76OQCBRR5ghljpIJgiTKkoextJEIi9uqVvcMNG8CZZSXlmvF+bqp6WSNIY8cFiUwOWSsQkQVj2fWsyXwid4quXDa2FaqLb5tFSYufiEHAKZQZXThFkFSAv5U7fyLVu+XCyIPbt3w549e+DQoUPKPv39A7Bk8WIh5KJ1nKeIOUhzv0KL8+2yyqYJw2FEvDRBFw2AreXVND71a1gtdakWO4eYy9Ho4C3E1xEIJOoIM8hSF45RB6ogEftJ7i+zl6bZgufWrnHgiKsJf+kFu2FZgmwXly5KGNN+J8H/UHlvTS/uwWrlk9v5zFtptsOnLuZy8wlafJIsYCUhXb4GkfmEdD5T8qfOofz7BF+4nXDCYrsQAbAKuTwuQ6fA0/mUBV8H+AysXSm9XzPyZxafqcJOscyl82kTcmCL9wTIIZBpSBMCiTrCjLLUcani9KTJ0wOflsfN8dTCH6kdJYxCXxIdLhehWeiDUVm2E19ntOar4JO5+ATJtZXCp4tTDvZKtHQ+VetcS/GKFU4T1jafbeRPQyDrwiNMl9HYsFqWwGpNsjdAEkHHOjyOIg/Hp/PK5tOwyql5MBGayXpVHMu/U7iUG3CWBge5Xwkk6ggzQ9SxoMCzWUBEQ52H7fL4u9xy96RhDmxluy48NPFhFPiOipRzq9XOKNyhBRcXr3IaJm66Xg3XVsBnwJ1sCfFAN9xVzqdUkbIMPtPi66YfnyaX2ZzyHJ1PbOLYFB9gs3SmuAuhA0OaROM+usan41n5M17XWT7BZTl28OmKVyQQSNQRZoCljsVzPMoWurighyhImkdlutELzlVcOgP7M1rwuVywmfFgruEkqivg6z31hM/A+KHxKQ3qDDzRxTGfvHN8poiPPJWovvT191WiQorxma01swL7W+Ezlzs7Z+OjCpXcI/KnGvMZWehM12vr+TMXn7KlE+yCLhefGTzqDZBZs2ZRgU8gUUfobmBFrMQsccn1GkSgB0W5NlVQ64H9lla87ALNiq2xiLlUq50+lhWAEWMza6j8Qh6HurDxGVSKJp+R9fOY8gnuyjIfn8G1hmYNVZA/+zvCJ4Duxta+WwUIZLtgweUydE/ZVqUI6bfwGVjovJjP4KNDfGY1NlIs9EaeZVnz7jIq8Akk6gjdDs/RWzPY5nGb69UzmuquacKSZnlWQe+uQPXCG1pwv+ruQS4GW+ZC0DWmGqWzuXfvXiufQaVo8hlXlZ437flU3VvJ4Ln4G8UC9iA96aQTy82dnueYq7R9PtM45cbvbD6zxFyu+DoAI6i/r6+/9Py5Y8cOqNd7oNGYUi10skUeua2cz/BXHoudjU9wu19tDQ78nJiYpOKeQKKO0N3Yt28v1Hv8Qn5qSu0cERb4NtdrbK2TSvisSQ6yAtHjTVmumIzCPRJuWa6ZhQsWws6dO2HhwgUl87nPP+ciGBsdtVg8eWIdkfkMatHy+ExxGeblExTxls3n4iWLBZ/nnPOKUvnctnWrGHj58KFDkHgES+BT49Qa2B9nzXL45I5pr2wNEJy1Yvv2baXnT3xGp522Gvb7+TSiSbd4VsOnJOKyLJ95LfQpfMoNOPw9b+48OHjwAKyIZmUhECpGjSggHAv8/Omfw0knnRTM2sDCQpAFcUws7MnJwvXx73BqMcbV9cG+4cKl/RhLtoUTikcdNKIea9H3JB3R9Zm0LTpWPSbucRrPPiENvWEZYX6uLxL2799fGZ9z581V+eRc4Vbmk8W/VT5ZET5ZcT5ZC3yiRQnHeCsyl6pThOzaJUIEAosdU+bytPHJHXzyjDyqrJc5MPhUr60PeCvzybX8HXCpbbcE9NfrdVjgi7ldO3eVzic+o927d4mGXJAOPT/ky5+t88niPGXyaOc1Xmd5j7L4ZJKgQz6XnbpMvJsEAok6Qlfj4PBBMVk8jtMVCQamF/RxZW+Kjng9Y0mFFi9yYa+dQzm/dN24ArVUeLr4cBTuTK5gJRGES61Wh1WnrYJ77rmnMk4ff+wxOOnkk3PxmYgBlU9eEp+8RD4jESALPOTzzDPPgEcf+UllfP7r974HpyxfFuexzPzJ3flT51QWJNwmcBU+3ULEJuaYReip67h2TPB5hs/n9//1Xyvj85GHH4FlPp9onWOMK8JO+Z6SP1mOd97Kp9LQyOaT6aLZljYXn+GC7zu+kwQCiTrCjMA9P7gHGs0GLD3xRMlCpxeuemEvtdydiyQCJMHBmSw6mGIR4VrBLlcchvhgNuFhn08Tr4VxdOe98ly/wvw+DB88WCmfY2NjcPLJp0AtqjiZbGXrHJ+sRD6ZVomiBe0VrzgbfvazJ+CFF16o1Jq8bes2WLFqZcl8ciufTLIOsRwWJp1Pt3BnVmtSdI1avQ5n+3w+/9zzlVqV8FmhyFnp89nT05Pwqbz7Kr95+WQ5+WQZFjunaJaEXhqfUYNj7elrxW98JwkEEnWEGQF0yfzLnf8Mdb8QXL12jeh1Z7POcaVwllwzzkXdh2sFus0Fa1gAuO6KsYgPZT/VRRkV7qeeeqov6M4TlVmVrfahsEft3//t38HY+BisXrMG5s+fp7q1dT4tXJXKp7UClF1n6XzG1s7wmLrE5zPPPAPf+fZ3xD3PmjVYGa//fOedcPjwYVj7stPb5tNmZVJd2MywMpnuc4sAkSxtLisTl4UIM12GS5YshgsvugAOHDjg8/ntyt95fGYoHFevWQ2LFy8Gr+ZpDSo5DMPNJ6uAT2azKNvWa8JZj/HEBhymA99FRP/AABX2hI6BOkoQjglmDQYiBAOoP3X77fDLv/Irwv0zOTkJIyMjMDU5FeyoTBOkI314V+NXykj+ymAdWieA+FfKeGLx2nDdvHnzxILC9Z++8AXFAjJUwZAmK1euhEcf/TdxPaxMLn/D5fDq17wGTjzpJMHn+Nh4pXzK9181n2jxfOjBB+Mro9ArP38Oxg2Pv7r9U4LPyy6//Bjyaa4z+JQI5wafao/aoaEhwSdazO695x7FojQwWL4IWX3aarjL/xcJZXzvkdMlS5cIPkeOjhi0lcunzld1fGLeRD6jWM+lS5ZQgU8gUUfobrzs5S+Dxx9/PK44UfisWrXKb+W+UnxiYX88A11ND9z/gLDOyYH8WPijACsbcu86vB5aRB588CF4zWteDWecceZxzyeKABufVYk6zJ8ysJJ+7LHHBZ8r/fyJnXyOdz4f/clPRB7RQwLWrFlT+vVOOlnlC4UPPkt839HyerzzOXxw2MnnkqVLqcAnkKgjdDcuvvhi+NIXv2QIIVeMVK1WE7E/dflTXvx1GPfkhb+x1yIutfAzGjoBPHl8enCOPWXELUlLs9kMPvG3/x1/550p4tJLL6mEzwsvvEBYAEdGRqWK5qAQd5Gb0uDTX7CHnvwpLxGXEa8Rp/ES8qmaQ1rnU+E0/MQlD17pi4IqBstdvnw5nHDCIti3b7/Bpw3Ih+BQyps6p63wGedRbTgNZnGpCl4l3pS8GX7m5fOUU04RS9kYHByEs846CzZu3Kg0PlDcyVZXg0+dx5BfL+SxJn03OM3BpxlmYcaBMi1vNlvgE613p59+Ok0VRiBRR+huYEV8xRVXwF133ZVr/7gQjcaD8gt3I24IC3cshKNCHoPbZVHnqfNHplaaUayXXtBLlWdUuOctsNFK99a3XlUZp9dddx189rP/mJvPKN1cGoJB5tPDfXwuI17lClMXydBCpcm1SrOpVZytVIDXXHN1ZXy+613vhk996lO59sU0x2mXeBSNDfz07w0FiOBTEiC1LD7BPuWXEQ/mEMmtCGTB57XXVMbnFW+6QhF1eflEHury/YcCT3AZcot51NPyaCt86p12WAan+RtbF1JhTyBRR5gZuPrqt8PmzZtg27btLQkRvaBnUqUZC7uoYMfCPmz5ywV8bhHiqDSZJFDy4oMf/IAIDq8KV111pYire/rpp1uvOCMRElk9Iz6jT82q5BTJaZWmLOgs1qVW+bzmmmsqcb1GOO+8c+Hii18DDzzwYG4+owqfayJEFiCeJJJZiqhT8mg8+wNzWpe4RSS3wudFF11Uies1wsknn9xSQ84llLn23udtdFj51Dqd2BodMqet8HnqihVwoc8pWekInUSdKJi5+LUPfPCDfgG4UrYYBELIM11D0lJzbQsL0biiz/je19sLF61fD0899ZQYRDYvdNFgzAyhuwD1gYYtw2tYW+aSe7Vp2d4Kfuu3frMy16tuGXjiiSdgeLhFPtUVynqeR1RoY9wpFk6LddMm6FrBa1/7Wnjvr76ncj7PO+88MWD09u3b2+cT1Gm8wDE7RlYDwuoSlH43w6UVd6ss6N773ur5XL16NRw8eFBMG9YKn/G7DuY0aJDGZQ5OuSOkohn+jjhtBUuXLoV3v/vdouOEKihBawKldeYytoLRv0vbGFK05Wv/cudnqYYjUUcgUddRUYd/e/v6fGF3ERw+fCi3xU4p2G1CT6s4cxfwcgtdj/GKKswWrR9omfvt3/5NYfHpBPr6euGKK94Io6Oj8ItfPNt6xalxq39nKSLZxie3uK6amlBuhU9023/wg78G11boJrQJO8T27S/C1NRUy0JE5q+VRoeLS5vLul1rJ8a6vdHPL9dee23H+MTYOuxhu91/3xuNRrF3voVGRxqfRqxsxG+L1rlIIL/jne9UBB2JOkKn4BEFMxd333PfvbVa7VIRjKx0OqgZQfPyUresa1fUyd/37d8Hd33/bti0CV2y2/Jn4ihgOuooYRGc0X5mMZgIQLmCYFpcnV6hpAFj584880y/cL8wt3WOm6V+oX1xy949e+G73/0ubNmyNbdLNuJJ5rFmCep38WmtbHXXlsRtXiGHbtbzz3+lsNBF49I5h/xodX3G/LYRMH8+/tgG2LBhA2zevLk1PlPyaMyl5irM5NOSR/MC3aw44DAKEBR2ytAdWkbjrt/hOm4qEfscwdoxOFD2T3/6U9j41EbRGxd/t8Vn+B2kxmU7fOru11b4xN7nOIg68omdI9zPK/rNzLHvuG0Ac20sPGY5hifnDAesvu8D73/vZVTDkagjkKg7pqIu+hN996QBq1r/Hp7LS7J6+99bQzsxNFWIuqL7pG13WR3a3cYdX3iKOaPTos4c58y+L0+US5vrQJnIXl+n3kKOdbn26byoU3+rZij77+RH6m+FPsvv1OMhcZM7fuvvt+s3iTrCsQDNKEEgEAgEAoFAoo5AIBAIBAKBQKKOQCAQCAQCgUCijkAgEAgEAoFAoo5AIBAIBAKBRB2BQCAQCAQCgUQdgUAgEAgEAoFEHYFAIBAIBAKBRB2BQCAQCAQCiToCgUAgEAgEAok6AoFAIBAIBAKJOgKBQCAQCAQCiToCgUAgEAgEEnUEAoFAIBAIBBJ1BAKBQCAQCISK0EMUEKYjPM8D8c+TF7EhXB99F3v7CxffeHQCzvF/sp4zYFxdz5Xv4q+2HcQ+8r7iU9ovWK+u6+3tgcHBQbFMBzDGRLpkzmJ+awF/nucp3Af3DQ6uom1c4yfhkTPHeh5sc3EYbMNDWbytp6cH+vr7YcBfpkverNVqAWfif5gfIx5DKqPcGWdJcc9q3jJ4kDiSOQ62yfkx/C5vt+wbPyP5u5/Gnnod+vr6pkcl5D/f3t5eqPfUwQv5jN/t6DdEXJt8RvcLlntX+cHdGWatmOdoO+OW/Cg/D/08PLkehNeU3yECgUQdYcYDKzLP84tHrDAj4VHzK1Ah6GphZRoJkKQiVYp5qWCPKj8mKkkWFN4oGlDgMSzIWSAiwt/x+njf5DPaNzqXui1cF28Lzo0V1cknnQgnnHDCMSCTw8TEpEgf8hSJEM//rIWVjyyYdT6D71EFxiR+k2cVCOXknhPO7OsTDsNPK3fJcwr2S55N3a/8582dC0uWLD6mYi7Ig7U4L8bcWhYzfwZ86kKBaXzGHETf8RmEYkR8RjzLeTL+1J5HuC06V8Qpnm3WrCEYmj3k54nOO21miYbPgHiuNYlPT/mezWf03kf3nPBovttZn/Z335JHIeQd1HPgi1OvU7VKIFFHmNFijkHTX7Agx4gATxSWgfXN46oNjolyk0sFPJd0jMW6wU0rW2TtAM3qEVvrQPqMrQCQWAPiKgWU7yCJScTkxAQ8//wW2LN3H5y+di309NQ7wufU1BSMj4+LCiaorCPLm4cKF3gtsW6m86kJZcmqoXCqWPA4KPQqfEPCJeeGCFW4jHdO1k1NTvpc7oVDhw/DslNOgQFfEHQohwaWTmEqwu/SJwSNhppVV3PFeuPKnzKfIFmCeJzDEouUzB1XH1TCIZfWW9ZFzwWve/jIYTg6chROWLRINEI6gXq97ovJQWHRxkYGxO9lpJ6l7yl8qly6LJMQn5uDaoUHMLerVHHZJmh/97V1rNmERqPh31sfWe4IxwQUU0c4pogKwVg8SCJCFRTMsGywyCqmtLDlFjuXWuyaeGuh8oyLeaPylNbLgkUr7A/7ImTj00+H91m9oBsZGQ0sMRYek+9MWmx8yhYIF59q5alWkly17Mnubbny5FwReLo45pLAjnYYGxuD5557TnxWb/Dk0GwyQzwobj0mCzNuWHyYZoFM41N+RorAi9bLzEiuR27Jk1wTpmDhGdFsNGH37j0w6YvmyiscX8TNGhr0hV3N8j6G3zP5lHnVywdm51FrxKkhF6A1OrgqnHnKux8fypUW3oTfqGr6ZRuBQKKOMHMEnV8oT01NSkJOLeSZYW1jVreJLEwUkWJUmEyNLXJWnqqlTqk8wVV5crmE1wp77gutEdi0aXPlfB49elQVb+CIubK5/pgq9nRhZ+PTEN963Bio603hqwq8hFcweZYqz4ZfYW7bur3yPNpoTCXpB5swVoWd0qCQGhi6UGYpfFoFnmIBNWPJ5EaHEmNmtTCZeZSxprCCYh6qEhgX6UlWYLA24GQ+9YYHN953U9hxR/lhs9YDGDGKjkYHB8ghnFVLfRK6QCB0BuR+JRwzTPqCDss/090aFpUYRlRLWh5RsL+Iuwv3j1xgSYcIsAfhywU+2At42T2muLlk4cbzVJ5cqTyjcn740CHYv/8ALFq0sBI+IwsdchTzortbecBnwmXAJxfORZlPAD1mycUnc7jAUq0gNre2UnlaBJ5WeaKl7sCBA7BwYTV8omXVcB1LHMaZNPqFXyMueRI4rxh1lKD+VvgEa17V86Kz0WFYmFSRjGsbUw04fOgwzF8wvxI+0b2LIRa6FVd1t8p8BplUvO2S6zXIo7rwUjs16RZ64NxupecW12uKwAMulzNqw00XzniOycmpadMhhUCijkCoDOiaYE0mOkLErXYvKjPVihKFncfl4H0vEXaeUmNKHw6rlO6OZXoBL1m3ANTKU7HYgV3QyRYmw2IH8NJLL1Ui6pBPjKOLegkrLk05qAr59CIuVT65wacu7MAuQBR3rBRnp1lerVYQS4Uoc6cKD64ZQjns2LGzElGH6UVRFwiJqLERigmtsRGquWTBfb1AiMRdNrna8FCFMrOLYj1e0eaulPJqzJvFJWvNo5p1Gbce8hseVYm6eq2WxHbG+SqI83TxGTU+VD55ev4EhwVUc8eq1nrVrW4VeMq7n7hzwSLwImobU1Oidy/F1xFI1BG6W9RFVhCuBsZzSGuxh8NwyMLOjLdXrBDy0Bpp8UtpBbw1bsllbTJECldiwoaHDwmxgAV9mZgQrh5ZNAT8eYZQ5kmFKSxKoaBT+PQsAkS2gLr5DNxN3C2QdYFns+DxxOJkWvvUT7zv0dFRmDVrVql8RjFcENKhCONUK3JoSebR+Btah48MPsEYhoM53LFqXB1YBJ5b0Gl5V7JUNVlTWEDLHo4naWzI4tZTGxsOPhOV3Aqf4HRpm8O/mI04m8BTOqZwnqvRgf+CjhO9VOgTSNQRuttSl4i6PBaQSI/4xaQnuQpV76tWwKa13s0WvLOAtwg2tfJMF3ggW638f0ePjsD8+fNK5bMR8Rlq4Jrmbo34RK5l9yvorldPIdNqCYl6Trr4ZHkrzzQriGKx447KM4xdmpwsXdQ1JT6TilpqaKRakSEYZy0WyJJVVBdW+vh9UocId2yYZUw6XSA7P7kp8OTn7S/jY+OViLrYlQ2h9Y1b+PRUMWflU+mkrbqzc1voLS5uVyOOS2I7eWaQq9EhtjCKqyOQqCN0OaICES1FvAULiOIqBA6yV4PLBb3FEmKLYTLECUurQC2VJs+2gtgsdmVjanIqFiEKp5HwgER8MM90Zefh0xhM2MKPyx0L3G1VsllAwTIcBTg+0VI3f/780jNoLOqUPGkKkUQYS8MNc5VTmUvVwpTGpxwiYBMhjgGIweF65Q6rstboqCKfehAN/SI3PCx8hpbkLD7d+dMcFNtqodd5NBocauxnsk12scrHuvNok0QdgUQdoftVXVSI6oW6vcUexNdorkLwtPGs7J0lzEB/h6CLQ5LUwhyso9Obgemy+zAu7EHqMKD4cMqXycFsAZYx4DSDZyLmsvi0CTo3n2ocnWNUfoeVLq3yTBN0ZieK0thUeXQKu9CdLVuReTT7gc6p3VJn51MWJ+CeLULmU8uHqqVaalhwfSzB6hsdqmXQxSe3W+WdfFoEHThmhrD1pAeHJRTU2Fng3NrJJ28e9SrklUAgUUeYJpouHLZAFOwWYae33LlmqZNdMVrNIffyc01dxTKtchaXoaOAt8WBuVyvvCJlx+WhLhzWDxB2Ei5ZQPLxqVqW9Omt1IoRNAsUc3DKclWeth6GbjdXFXnUaGxIQkRwV4t6uqpWT8+LHY3OjhLyc7NPWwUOAcIyRXPyqVqV1LzawUaHNh6hzifeUxR3Z7PKB3yGRHoZ+VOJjWUWgceU9x/0765GHNcacWA24mx5lDQdgUQdoftFXVTwxgW7xfoRW+eCVrsa1B/X9oa4kVvw1uBpsAs6ljewOqXy5CmVZ5UFfFwRaXxGIk6uOIVhqRCflt6XzDUuHjO5ZnkrT62SVCpPLZ6pAj6tM0XocXRKJx7dEmpympfP0ZFReOyxx2Dz5k2wbds22L59OwzOmgUf/ehHYaB/wD6naziNFegzVEhWJWWoGUejg/MK+ARw86n1xlbee63xAdrjzuIziv+UBbK1QQeQkh9t1vosCyhXrPUEAok6Qpdb6mwxS0xyC9p7v3GeCLzIEGIU9HKvwNSx1iyCjnF3hcnVlr2t8gTbgLsdKOBlV10iPBIRxzRXNnB1yiuDT4lTwzpmTK+WfzHc2mB3cRvDd2jiWOW0klZHIAD8XGkTIqDFHiYWpaSzicc9R3MGHPkTYO/evfD1r38NHn/8cRErKGPM/71hwwZYv/5V9kF1DW5twgSMODAjr1ZmqXPwKTHjgW75TFyvnHvO48xOPZapwyDDQi9bQwEsDTiblU7Lqy4LKIFAoo7Q7arOiFlSWuxSQa9blKSOAOmB/WbLHSvKTZs2ibHili1b7hR0zgB2RwGfVnnqgqiSGDALn+DkErRhTLL4BHAHo9vnMtVdqDZ3LNM7WIDmprYJY7kCBtnlW4ElWUTz24SIbE1KXK2eYqFTObVzqfKJYu7rX/96arr279tvChCXCNE51bnlpkCuzJIMoVVT4xOvWZO4dFmRudTl1dZRIvntsICmzaiS1QhxDWCsW+lteZUsdQQSdYSZAMbT3DxqpRkV8iB/hmYlV0cJ02IXfN511/fhG9/4hvi9aNEiOOecc+Gyyy+DhQsWugt7Q7hYhkSwVZ6uSrMqEaLN7VkzLCBe3JEiqECz+EwsS9u2boMvfvGfNMHHDeurvA5/r1+/Hi7yF1vlCbkrT32qMZXXigiN3dmREAmiALgUR5cI6iCfQjIFlpVTe/4cHR2BT37yduFqzfucjSUaV89qUQazl6tmpas8RjFqzMR8RmMkeg4rchKEEVlCwfHOq3GX+kwwZm9Xu6Bj1ri6VHcsswy27bDSEwgk6ghdb6mTY2x4OIKaPPSGMfAoT1rx8QhyFndhVKAnn0Ghi1a6u+++O7F67N8P99zzA3jooQfhuuuug4suWm9vvcsVJrPMIeuqPMG0KlXl3oqsXbLwEEIkFnAhd3E3icRC53nZfAZz125qOV0LFy6ACy+6UK0cGct0cXObJcnagaUiPkF1Z6MQCfKhF1tBZctn3AAJ+TRnbTAtqwjMk3/2Z38G27dvy8nnwlQBkt7z2O7iBpt4rsJSJ/Pp2SzJYLhe4/wpC2PP/b6nWuogHBvPmFvaYaUHaT+w5z3ZSseVmNpqe2cTCCTqCNNM04XiCaR5HT0mqznDoiS7XiMXF6S5tbQW/AMPPGDEKSFwBH2nO4al9DS0WOa41R2rWesqsSyxsMKShQdL5s4MK0zdvRVYPlx8SpVkmxOTo3BO62XMjFgmi4UuzUpXVaWpx5dJ7mxlLlIvGUsx4jGK/Yo5Tcmft9/+ydyCbs3atbBm9f9j793D7Cque8G1j6TulkBqtUBvtd4vHgIkEMYgDAaMDcTYgdgzNmDnJuQm8+Vxvzy+5N7v/jGZmcyXLzN37sQTeybXcezY1zgxCTjYxtjmYTAg3kjCRu+30MNGUguEuoUeVXNq7121V1Wtqr1P6+yW0r1+cHSefc4+v1O76le/tWrVwnIB4oVgbU4FKUzqdZUk2oXBFc8Jcu0KPlHo1eUz4HySgg6AFr4AQUEnInUqIerWh85/lnUMFnWMESHqkAhxO3ozU8/ECA7Bpl073mIoAXKhhOvYPfnkE0H3Q7t0MUFXGo6Fkg6+1vIbWZFaMo8uD2llNb+k7ShV5PNMHEYRqNYvggMmURw2IqTrDmdLZCwVYs7eaN6EYE3oNSFD1Lh9fu9734VNmzZFj0Mtirjxxhth5syZreWDCcSpoBzlmANaTwPVv73PJaBSfwWPCV4YVYFP93y3FzUMIr+OKHkSLWAsKJeOM+oYLOoYI0XUIREiiY7e7DiRbxFkhEjhw5lQF+7Qrc/IO/YXXnghdY3ogfMDzc7cqWcVEnRowLQ7frqDl8SgUhefdjjbducAF3HWuk1W5/PYsf5BHVfX2LHhnRJKdvEoC8fWuaJY85kYxhpobzWcR5cJZbCuofSYDh062JxkPBl8ftGiRXDPvffl4Va/DUJMgFTZBi+U9ylrqqOYi/uUo0biTeasvMT8uRCfxZZjhBsIEBZzANGQtc+nKHfoCdeTcvcYDBZ1jOEt6gCsQTOBoqO3ZuyAk9DzzjxJCkPJWRxgbkk7j+fRR79PHofa4/JDH7oB1VmDCoIO5dUBvfE6laBtJVXX4ny64eyqfGZsJpQwzv/dXTFE6GLmjBkFnwDWgBncuB5kPJeJymGqoYGa0BlKDbBCr7p95ZaSFiQShV3pFEUJTzzxJJkKoN25e+6919Sd80KG6jGAsAAh3eWqggTqWyghhJWTaKYZUlquvF4dEeLTEm/ofMeuHenYWd8dSgSyiHMoWylczqKOwaKOMdxFnV58YNlKhTuHc8GkGzLEnXrJQgmFdevWBV26q6++Gjq7uloKx1Ab11cZPIWsuU6dELaQ04LZDb16fCKvLsBnSIkqR+n3f/8PrNAzyMENfvHSEhAcWOtxlgo+fRe5EHeAeAXLTY4tk4B0cQ4pgmfOgttuuw2e/slT0D8wYN5T5dLNnz8/4HaGBAhUdpftOoL1OHVeOJvgUw6Sz0GFYPEEzplwDNqhD+x5zGCwqGMMe6fOEyGh0CvqzBMtLvLH7dwvW4DoDv0nzQEyhOs/9KFg2K+qoLM6dBHv4GsTIdLPAdMuksT7ZmK3Q4e4AnxiDkPuor1FmB3icnPpRIxfIhxL5kGJYncJayux9htLyEm2+Uic0KsVgsUTisR26zSXb7zxRro4h8LAQD/8+Z//z97jP2peeiZNgutXXQ+rVq3y6gFWzQezVmWH8sNqmnTo8GvSKELZrfJJzjmc891qt0QIFiILIeKCTgYLO9OTOWCnjsGijjFCRB3OWQo5ILp8ic6zUX9nxIeEWJU73dlv2boFtmzZQr5u5cqV0DOxh56tQ0VBJ2Q4oZ8QLXWuLsR8AuWAOKFXyB/XYllWcFlcpDlfeTgQZHjrpeilJCG9Sk5YHarODr8WEwws7orQqxYkmYxLXIGBsHnz5uDHHj58OPhcX/O57373Edi7dy/82qc+VZpfR3EmUJ6dCObc1cSnCb8K71yvyqcsOd+xa2c7dUAu1gGiYLaM8ikch15UcKG5v2ewqGMMd1En7EFTOuJO99Z6wWvaDeuOHtkfaGt6r5dXjz32gx+EXbrrP+S5R354ppqgMx08+IOnuyl7bTtKpAtPwnxaghlsp046fFqcRhL/lQj54Q9/mL6oq2sszF8wH6ZPn+GUfhBOeEuG9+CFCgOmK0KGMPwKIUdJr+zMQ4VeKBu1zbfe2nNGx/baa6/CtOnT4Nprr/P33A0JkBJ3bigWSlhOciT02hKf1vnuCDhHoPv5deBP4AITDkrQxTj0ajAyGCzqGMNa1BGDptvh48ETUMevX5g4Yk46zoASHFu3biU/f8GCBc2BcXru0gFZnNUNyZQKOinJ1a7UYFqPUydMaeEkJpYRz9lgmZB8Yk5DA5Pi1+W4p6cHbvnIR2DFiisJLt2kfqgkQNwQtw4JmzIS7TeW7PCrcTttAWJdA1gLeQIVYoJtshU8+cQTsPyK5dDZ2ZXz6bY3EQjHluXVQY3tUxY7cSTxUHaIz1DKp+eKEgIOYitg8QQOKgg6IUtd+boWRTEYLOoY556os8KF2T9ux25WxCUo9Irya2RoNM6ROUg0lOggy2cAnTxeWdBZz4MzeEKtOUteuJByQFw+8YCYJEE+VcivKvr6+uCfH3wQXnv1VbjnnnuthSjQQnkO+r5fV60uVWeON8n3eMXiLnCtJx8Gbjut8PvPmDED5s9fANu3b4N9+/aRrzl+/DisX78errjiChQ+hJYFiHAX8tSVAybxJC4piokjcVeFT7eN/sX/9r9GQ9at4o/+6I+hu7vbaWet8imciYngDp/Boo4xzEWdKMKFmbhIinIGzkzcDcnowTLx3D/k0jWFxSuvvEx+tnKS5s2dn+YnPf/cc97zd911d3OwXG6HB6FVQRdY2Qk1LpQQIpB8DqhMRGLlLiWYTymDfA70t16nbvv27fD9R78Pd/3q3ZE9S0P5i76LRA+YNZWIQU4yWE5dvtG8K0BQm8RtVHOsHzseWCCh8elP/w9w5ZVXmsnFv/xzUxy/9hrN747tcNnll1fKV6Rz6mzXFGoUIMXeyIASJhKzs0mrfOr3bKegg/T9+mD8hAmo/YmWHHpqQsjrJBgs6hgjxKkrwoWF4NCdeb6NleM4AUClhRI//lHYpbv5llvSznp/wAXp6zscCGlVF3SCLP4qhmB1IQQcEL3Nms5TlHbou8rCk0Fgzeuvp27S3Dlz/d02hKzGLyFA6l9NDIhPFAI0YsQPFQLRRl3+3nrrreBnqpIlKmQt0Eriu+/+NXjzzTdTZ87FkebExRLFLU5AIBKeraV9inw7usSeXAyWz23btrX9OAeOD7QukK2V2bZDzzl1DBZ1jJEh6nBx3iRzlXxHqRB42U3dqSfhpGnI9nJVA2HIpVuxfEUuEuIDur86DloXdFZnj7ZvqsOpQ6v/aAcEUIX+JMinmwMGxPaVajHE2LFdaahVXeLCbg3Mnj3HCg9Kz4UTUX4hGo6tRSU74UKgHSXjLGUcmoUngTY6ffr04EfOa4o6YYpagxEI6m927NgR/d3Lt78SgRXHvhta32pioXd6LfYhBiB4zIuRl/BZh1g6sH8/LF602Hfbz8Sh5+6ewaKOMexFncDhraQQd9pRwoOBSZoGKOwmCIZfn3v22WAdsOW5oItlhJNhQRQSbFXQeWVNanLq0kUfifY+pREj4Dh0uryJy6cr6KTlbt4MXc91wYorV8DFF19iCQ8l6h544JuwvzkgkgPlgf3RhQ/CCgFCpRxFq+5dTatfcYmYwu0M5X7JXCz7nGJ0dHaWCkm9xamEuGKVTnjQ5ZPil26v4OTU1aLpjPNZOHWFgDO8mnqKYT51GxU1nEuz58wpdenL+aQKZDMYLOoYw1nUWeHCwklyO3tIoHLStHbpniPy5DQ2bFgPO3ZsT2+HRMi6dWth586dsGTJEli58mp/tg6tCzp7wJS18ukvOsn5NDX/fGcJ8sFTUqOxcpHmzoO5zUu2r60tPLq7J8K/+3e/Cf/1v/4XMkx44MABcpVxKzXs3Ppiou6cOr2yNkHhQCSUMY/G8XQWnoARJDaXXV1dJE8qn0ugAsFaOA8E8/CykOZg+RTOFm1Q+w4d0p64oRmHdAQePr9DbXTevHm1nUfuBKO6QPbzFHkJLINFHWNEiDrTyVsDZeHYSSREsgRpJDrMY7ZTp2p4HT8eTkYPCTmMI0eOpBf1jlddtTJcK61VQVdnIrp0B00/9KoFXuZ+yOJ2hE/3hjT37TIRnZ0dMG3a9KYYpsOEIlagmcoBg8iA6a0srGv1q0AiznGUJCCHLkH8uXFsf4uOUDhVTTgG+m9LVwvr0KviU4liClOmTo3X8BNlExDUZmvOAcM5tEYey5BDZ/MpI3xO7OlJcwvbhW61SELI6OKHlvnkACyDRR1juEOkYaO8kyeFnERCxHbmiu2sfGdp9fOr2+rWCCHs/D8yvFVd0NWVUyfSRHSBtlkDRyiDk4RejU+vcp23DVPh2MXENBXODtXyC28nJoY0RzFL7JcopK0rxiCHLilChSl/eWPFnLoyeelFF5GiTrl3X/3q38ONN344FXa7du6EF198IXiMKvfLbYtkDhi0KOhqib86zic6122Hrjj3Q+c8ftM//qM/rtw+rWtnRxJ828rvrLAIJcan4Fp1DBZ1jJFh1YHt1CUJ6dDFk9Dt3nLtmjVw5EhfWw8yPmMniumWCrp669QVDgh4gyd2PKvwaWsRicdMewP15n/r1q4NOkpTXUcJYvl14eLEoRWzde6AoMUxLr0jsWmUIDcpQeLOViLWG19x+RXwk6eeCoaq/+mf/rHcUeruht7e2dHcz6oCmapZ134+0Wr3glQAz6FDDnKVNkq6yMRuKDikHRJ5xPZz7gKeYJ2/GJ+s6hgs6hgjwanDnZ3u1MnQK9gdvZ00Xczcf/KTp9o+sJOdOrQS3rIFXX0lOPJBUybEqkKUqwjIFS3hUw+Mzzz9NKxduwaWLl0Kc+bMg2nTpqZ5dAoqPLhu3bo0DzGEKVOmGMczyGWLNeyElWMHtfLpO0o4fw65cyi0DRGNrBZLfOCaa1JeB4vb7/gV31HyBB5UFshiCHY8sVa7Bx06ik+7jYYnHvSEw9s6zHHmQq5dbAIHaIV8OZ8s6hgs6hjD3ahD4cJg6BX0Sljc0ZtePhcvRYc5Z85cOHJkbduOsTsvQloWLgzP3n1BV1eJg6KYMxbIQCT1gx16jfCpB0sl6FSO4YsvvpheWsWlly4jBVzl/Loov3XugCCRALEnH8VCHjv0qoWeQWBfqxs+dAPs3LETdu3a2bqgu/0O6J3VG95GDQKCGCqu2Kxr0iFE0JUH59yPnfMUn3S+p327agiWEnvh7cBEpRWwDAaLOsbwF3W5ExIKvQIaQLMSJkmxejQBq6yJevzjd96ZXqgQDDWDf+Cb34Tdu3d5x3btdddlm6XLwIpXa3VcePsrUtDV5YSA7dT5gyfmE5wkdGnVMsFlTVReV7ZoZHBQIcJZvb1+7hfYAyMOF0Kl/DpZ7KJRM5/F4pPEanC241m00eCmr44Qufe+++DxH/8YXn75pUrHpPZ5vf3222HhokUBPunN5KtPQOrjU5/ztjAGOp/W4ZNqo0GHDj1OhmDx3swQEHNgn98QWiAFFQSyECzqGCzqGCND1LmdfNGpS5TwL62wYTZWJgCRCJfbuXuCrmy7Lulu7u1sAg6hnDqICro6yxtQjoA0++dKtN+rz2c2hiakAbJzEE5SIUI64ZOf/NXUoSFDXpIKFwb2g6VqhwlRo7MEllOHHTstmAGtigVpO524jcba5y23fASWLVsGL7/yMuzetQveeecdXxjPng2LFi6CSy+9NA3dVuMTgvvtQokAkbVtYxfgU9Kh19A5P5jz3RWVITEXcjshWJC8XNCxpGOwqGOMDKcuD796oVc1O5fSDKAyn6Wbjp6qPEwpErcjd2ftJS4iNVhG8+tMjlfIoasxp67Jpcen5k4PknoAdfh0BR7Grp27BnU8Ko/uE5/4JHR0dJAuSGn41RXNwq5TZwbMGnPAcAkOS/AnttOUoNAgLtlBtlEi92vy5ClpSFU//4tf/iJdRNE9oRsmdE+weRMVQ4YiLJjp/EVRc90/3/n0HbqSc167n7Hz3cunCy+aCIq5YAgWKm0f6PPJso7Boo4xUpy6UDkTVOpEixLpxlujH0DM5J0OPjbzx05dLMQlSkJdZIX5uvhEq4nT/03hYdsNbYVPJc6oEHUIE5pC5Nprr4WLL7nEXj0YCHF5LmhJPcBg+ZMarDqST6fOmuFWt9eqbTTSPidPnmxuY1euSsiQdJVDEw5CIIuaJh1AOZ9o1Wulcz7GaYXz3Qg5Pdnz+ATHjSfaphHMzoQD9WkunyzqGCzqGCND1BHhGKlzaUwivz9wGlSZtaPH3YFxxYoVMGvWrPS5X/7yl9lg2sTMGbMIMQKR8KsdLgyHt4ZgdaHzGBYkrhAx/EKA0+ZLbrrp5vSye/du2LNnd+ogKa4wsRNyR2nhgkWGQ4szz1mKh7OrhLeg9m3CgHaWoAjBUqFsMkyY0IdY1j5d16kSn5Hwa/X8ujo0nQzySYZeQ+d8yWeU8hlw7GxuobRtysBkjRJ0LOoYLOoYw1/UidyFSLKSBlaeDYAdPjTRraTarB27A5FZ+/z5C9KLO2DaYUEgB0soyQmjq8+LekuaOHx6Sf0En17YNXBos3pnpQI4OnCC7WiCk5ROiQ8/nN1CiKvmcGE26XCbnDP5gMRZZJKUTjY8/iJ8ei5SkE/KVQJicU95fh0MYU6dN5krO+dLnM+yxVFlfAJ204PuXIt8sqhjsKhjjAinLh9AZL5dEOTX1i4TbhK6BD/PKTRjD3T2Vk5dcDUchMUHRGbteLaOB7Nc0NVV0kRYOUt6MCxqgCVOWMu4S0R9ukHxCUAOlMFB1BHKQS7RJveeQAaotaQJySfYOXV4IU/VNtpePiEeMowIkqEWyWU5dZ47l9iiLMRpOZ/5Iy5ng+WzSo5izekWDAaLOsY5BWEVy82LqYFEAyhkIs+UMii69FBSPz1zL3p2aUbKcKjLEmzQWsiQzq8DW9ANUfjVqlUHejeJQpRooWeJkcHwGeHRHUCrhgwhGt6yBTLUlQKGnTor7xPnemE+URttN58xx44MGdpuJ1SZcDiir/2Egtl2zXfo9Hmep1y4fFbh9Iz59MUcEI4nVJnAge/SMxgs6hjD3qlLO3k9OCbST0LXIk/fzjt3kGXxGBmctdOCLjCDd105Mr+ufMYOQ5Bfo3LmbD7x/q82n1b9LxM6TNrAZzVHxA0ZesIjwh8V3ho1alQdGiT9DHtXDjep3+bTaqNlfAYS+wfDZ1B8QDhcSO44kYvmOlRy0kiCC6PSLdgA5dJRfEbbaH18Vg1ne+WNkMjr6OzgDp/Boo4xzBve6FFZ0VkzOBazdddN8pPQUQ8eybELFSOV0nfvoqGYiBghBYmIV6JX9dvajbR0iHINUgFS8ClzdYfDsPRCCYfTWGK/NY6icF1goMQCGSLiA0Lh15LLuPPG1dA+R+d86jpqqC3qdAGI1VMrF0at8QnVQobU/QiXQOR/ddTSPjsdPrUYds556bifoTbaNj7Bb4OD5DOUX6fOTQaDRR1jWKOra2wRjjGz8kKQ6A5fImcu8Wp/USvjJHWFwq4QCcECGTLEg2coGZ0MvxIiT3XwnV3tHzTVrg+ps2TxiN0PVLVOh7nADWUnxNgpaUME89lSCDYweALE3aSIwOvv7287n2PHjs2dOj/0CiDN3q86DFtseEC00QCXwfZJ8UhONvzwapTP3ImLb30l0+3x2o133jmSryh3F/IUk7rinE/sTTkSajlxPXySYi42iavApyoofeGFF3Knz2BRxxi+ePvg23nIUKDZuiNEoBhEs/t2Zx+auUtChUjvfrkjQoo5KA8ZgpM/p0SJzv9Sdd92bN8Bl1xycZsHzXdSwXjy5CkzMFKhVx02BK2VZTIoPrEotgVyNT6rhgyt8iYAXg6YKqGyf/9+WLJ4cVv5fOutt5rCrqspGAdwyidayCNNFkDh1hUTjSRkH9fJZ8W2GXOVJzQF3b59TT6XjG/vpKPvCIxvvve777ybh1clWshDnfNozma1UY9BgHOJT+eSnZMnucNnDBkaTAHjbGDzxk3Q09NjBE+6I0I+yIh0d4Qs506kz2f30/BNmpgsiseJS1YQNCsKqhdkSP2esnh/aX2u/hz78wQqJqr/1rov8XH5+V5Cf7/mpTGqAUfeOVILnzt37IDJTcFof5+cQ+92wfVg+RQEn8LjE/PqP+dyZ/Hrcqyfk8K8rtFoNIXC+FQwtBs7mnyed975fhtw+JRC+nyKuvksah7av7VAn484E/brBX48/2wt8JRIVm2p3dh/YD+MHjUqq5eIivRaHFp8FvdjbbTgsj18SopPfE4Lf7cYi0/cFzTvz5s/DzasX88dPoNFHWN4Q3XyR987moa5PGHnDKK6s7TFSdlFmE4Zd+jFZwhPyJnOukIHL1Dn7nfsdBjmoosvgldeerkWPvuawmbrlq0wobvbfC+JRJB97PXyGR0wHfFmiztbFGOxQQnmefPnw+rnV9fWRtetWws9k3rCfFriThiOqnF6Jnz6v6kr5mT+OUXyviCKDdvir3d2L6xf/2ZtfD777HMwZeoUZ2JhC2IxmHNeto9Pqz06bdO8rxTeNmCYT308apK1e1dWsJvBYFHHGPZ47NEfwKzeXpNEbTllUjiuB54pV7hYLg8WEKjjtxw73/UQQaeu6MTdzl27B1jgqc9YtHgR7Nu7L3WA6sIPHn0UJl0wKRd26PshbrEwETXxSQ6USPTYAybiXvrOiHbnsPshcz77+4/Bmtdfr41PJRg7O7tSPgXFp5Q+n1U5rcinrMinK+YEEnKkm+QIkhkzZsCYjjG1imT1W/X19aWfJYTzXQLnvBgiPiXFp+v2t8CnSrOYPac3PScZDBZ1jJHh1u3fD4/86yOwYOECuHDKZEiShh2SccOGXlhLOhf0nJm14w6dEB3uQOm4SLZTh5wPSui5TlPzdeO7J8CKFcvT1zz80EO18qkcga9+5e/hggsvgKnTpkHSaATcJGnzE+T0zPi0uCOdOmmF0AQhnN1BVJWHWHb5svT2t775QO18fuuBB1I+lYs1esyYIeXTDa+6Dp3lXpq/dcSH1zbt9qxyvpSDPGPmDPjOQw/X7iqp32zg+ADMnTe3WGGMQ9nOOV8Wym4Xn8LjE4ljUZ3PRmNUGnKdPWd2ei6yS8cYavBCCcZZhZq9H2928nfdfTdccMEFcKQ5kz927BicPi3S5xP7n0HArSxfPO4tlLBuF89bm4Dja1SuQ79eP6bKbKjv093dDRvWb0gFXZ0d/Ny5c2D9+vWpUFaDyWfvuQcWL1kMR999N+XzxImT4FOZDCGfPn9eUnoJn4pLxalyO5U40HzObgquOiceis9fvfuulE/dPoeUz9BtvIiHaLsxPlVZHeVATp06Jf2O3/7Hf0qv64Jy5/DE47P3Ntvn0iXwbrN9qsUTeDFB8m+YzwsumATvHX0v/Y6az9mzZ3NHz2BRxxjeWLpkKWzauCm9rUTP/7X9v8C1110LH7z2WrhgmCz/V+LjoX/+Fy/k2u6Vr1rUYSHypS9+MeVz+fIVMHPWrGHj7D780MNeyLWOQXPJksXW5/6/X/wSLF+xAm666aZhw6daYELxqZzzukQdFnaKzw9e+8F0X+HhwuezP/1pGsLGEzg1GWEwWNQxhjWWL18OjzzyiNXRP/XkU+ll+vTp0NXVZb1erXRU4cQGvqiSCOntJA3dZvez20laLiHJZ/3Zbc9ZIWtWFbXRcKK5EOgah9lEkT/nChDKmVu5cmUtfF51lXrfv63Mp81l0uSuUXCsedUcNhqGy4zHMj6xm4Gq7YdCYGiFLM5rwug7ciR1yVwoQVdHDbAlS5bAuHHjrBp4Svyoy8SeHuiZONHhM0HtEnGp2yZql8VtvEdv3k5L+cSlM4SVj2jnT7qLB6rxqRYuLVy4sO18qpXuStjt27evGp9JYp3rSeCcT19nzvuibQ6aT1mswMWrcu3wrshr7oF1voWczkVtLrfDYLCoY5xzUDlKS5cugY25W+cKIgqNUaNgVN65q62hGo7ICwqSfJDQlesxqILCVm6YtQKveX36tHnsNLpdFXfccXstfJ533ji44YYb4JlnnqnOp8OjyynJZ34BfbsCn0EhR/Cob1fFrbd+pLY2esstt8B3v/tdwpHpIwURyaO+jUSKFsmNinxSe7fG+MQ8tsqnakN1YdX1q+DBbz9YmU/FR8olOu9j5zzmVPOJNR3JJzXZCFxwO6263d+yyy5LJ1R1bQ/IYLCoY5wz+I3f+A348z//XyrvCKAEFe6QR+UdcUNfVGerOnfV8eqOPi1uHBd1oQ3khUniDnfyrXTWStDVEXrV+PznPwevvvoKHDtWkc98sMff2R00hbrGfOYcVuKzbNBUj6GBslWBvHTpUli1alWNou5mWLNmDezZs6cynzhv0FzUghV1QfX10sLblFAeDJ9OSY/TzuSjKmbOnAkf/dhHa+PzqquugtdefQ22bdtW6fXqO5pzbNQoooRIds7rNoo5LRXJ7m+Ez3Vq4oE4rQol5tTEgMEYSoxiCkYuPvf5X//1Zsc313UNdCgjdGmEnsum18XsuOT2eePGpaHBl1+uXrvNreQO6GJ11HnnTa7IDF0CbtzpwOtbEXRz586FP/3TP6n19+zoGAOXX34FvPDC6spV7A2fZY4b5rais2FdkHN02nlsMHyqsOsf/8kfwZgxY2rjU733ggXz4ZVXXmlpV4Aon04brcwnWpV92uHTcKm4za9b5VOFXX/v9343va4Tl1xyCWzetBmOHj3a8jkvEY/BfVrJVcHhiyREm+bRcjtbnMApQXfPvfda+XT2lsCBXTG8nc8koUrDe7/kh7jzX7/z0Nd5hGNRx2BRN6SiTv07fcaMtOTHz3/+85b28HQ7WEvoObNw4c7EiU4dDwDWoOl08q2Gs7RDV7eg05g4cWIq7LZu3QJHjrzTMp94wDT3HX5b5TM4aA7CnVNYsWIF/MF/+P00561uqEH56quvTt26Q4cOtS5EQlugITFSiU83p4sIsYpB8qly6P7wD/8QJkwYXzufSihffvnl8Pbbb6eXwUzmzmTS0UrIejDha4WpU6fCpz796fTadwlZ1DHqRcIUjFw88dTTP2k0GjemeUA47DaKzl8xOUNUbssgRZ2+PdAUdI8//jg899zzcPDgweoNWAtNnVPTaJCC0wptJcX+p1i4QCT8qq9bgVoUUTXkKv1e/4xeq5555uln4LHHHoOdO3e1dNwWl0Q+XShUaB9f3DmxBE8LYu6jH701zcWkKZDUmFn+uDdu0iPn86ufhycef7JyOJbkk2ijgEPaRButmiLQKp8q3HrDjTekolUTIYmGJkP388ekr0Q8Dt3XqPvbt2+H5559Dt58880z4pPMpzsLfCoRd/UHPgCXXXYZKezt3VXobQX93VOcwsaC+BvpLuiST3/+vs9+mEc4FnUMFnVnTdThenSHmqLu4KGDYK9ec0VEov9H4g4/jjt39/X5DVn09/bpINF9XNOquqvQau5cHaJO/6McUErYRd/H7KnusJ7gv83ZTLSrF3pfVPPP1Poq+67Sei+VPxd6bqhEnT52xeeePW9ByDORfpG0bKN6p+1SnbAkbB1c809fFcco7fvkIUnvvWfOnJFt0Vci2OoUdRoD/QOwL13M49aYC9tSErdH6o5E96Xjizn39Qpt+j6A2wHY3z/7JkrQ6RXmZF4lizrGEIEXSjDOOagSFRdOvrAQFAkM4nYuSZBgG/zt1kXduQQVprz44otaFoex50OhpME+JwM3ZFConF0+dR07SgBKW5kM4jFbSHiiDnzBEX0s8ppzAUpczp8/PyrqYqLMu299PeJ+9O/BLp5N3CdTPxiMcwS8TRiDwWAwGAwGizoGg8FgMBgMBos6BoPBYDAYDAaLOgaDwWAwGAwGizoGg8FgMBgMFnUMBoPBYDAYDBZ1DAaDwWAwGAwWdQwGg8FgMBgMFnUMBoPBYDAYLOoYDAaDwWAwGCzqGAwGg8FgMBgs6hgMBoPBYDAYLOoYDAaDwWAwWNQxGAwGg8FgMM5NjGYKGOcskgSS9Fr93/wvSczt/P/sMfuPmhfpvZVU/0n9lDSPWq+R6Uc2r/3H9Wv1c7HHzjvvvHOOSvydNGdJzrHmDVOpXp3I7EWyIM763qA5Rdf6s/TH2X8rDf36cZm/qdTvLaX1d+rfzo5OaDTOvflnekyouflt0W+D+rX6dvFYxpnhQ/OAnlcfJgtirddK/DtLm1f3NaNHjYaSQz0LXCYwZswYyM9uc6zpccqkOLV1+8Hnr0TcgXTuC8gpyTm2eTfXhh+J2q80bbLgU5o+xj4XGAwWdQyGJzzSfrvZwTeSRjpIqs4+yW8X93OBl/fymRBDA6MUececXYS6FtljQsj0+di10K9V74PvN6/1e5lr8jHZHKBGQ3d3N0yZMgU6OzvOCp+nT59uXk5lvCY5j4hbl19P2Ek8yGXc4fvScFZwazhLrzUnmsOcX8RdkNf8cX179KhRMHbsWJg8+cJ88D8Lcwx1aQq5xqgGjGrkHKr7ScGhbp8Aup3G+cxuFzx5bdHiM+e/rE2a97A5xH8DqVjugK4mp52dnWeFT8XhuPPGpaJ9dPN80TwW53hjkHwWfBXcitbOfYtf/Rvgc159tM290ndJo1Eq7hkMFnWM4a7m4HSzY8z67kbqEKkZcSHW1CCUOTVqPFIGiRYqRecOyCWiLno2Lu1Zu3FIimtsB0jpukzOtfM99GPvnzgBv/jFL2D//gMwe3YvTJs2dUjFcf/AQDr4NPKBUbsLGbcUn0ocKw4SRyTnfoew+QSLVyi4084cvmk5mdjxQD4H4UBh2/DEyZPw/vsn4HBfH1wwaRJMnz5t6CccjVxUmO/UvKN4aRTfRPGpeNRCJPsaiediuu0T3HbquHiWm4ddPJI7xCn5WDbx6e8fgPeOHUud5QnjJ+TtZGgwrikmx44ba4Rcdn5hByy77fOZ2N4n2T6FaXzGaZO0s4yo89qk5YAS57x0OE/F9MlTqdd4tiYeDAaLOsZZ1nMCTp86lXfajVxYQBr7s6OgWIhknbwv7KQ/ezcOCO7gHUEy6METh7esocYaAHbu2gXvvfceLFy4oHY+lZB7771jmYBTHCUFJ4VY84VykrhhJQiIEOSCQj6AAhYmQHLni2N/oIyJZCy03z54EI7198OCBfOHxvEUp7Pwf/rxSdFGAxMP3VQKMUJwYDh1+dRh54jQK5l0hLmTtiDJ/33v6FE43pwEKFc5GYIw93nnjctETy7kkqQIhVbjE7xznmyfWDQ7kzh7MocmIgBW+NvQVDLpwKF1dQ6+//77MKajgzt4Bos6xoiSdHDixIksbOXO0lW4o+Gu5BG58EjI/DdX2NmCDnX44HT0EoKDp50DZoZbQnigzl76nf0v334bOjo7YHZvb61u0tGj76WOQUOHp5EDokJGPp+NnIcECTvshNgiuTUHtFx4xESyDIjkVIg0RfLu3Xtq5VPhVHPCAZmB7E82yIlHYnFoHD0nJzHMp80teELPbqvUpCPmKptMRWceo85D1UanTq3XUe7q7IRRo0aRbpk7oThTPgUlipErDzjHUeJ2Jm0nTkrEHSWcHaGdh8jff/84dHR0cjfPYFHHGBk4efJk2vmpsJY9S5emT3eFXTauaqcu8USilRgencEDLfDATp52O3Uza8fJ50HXye7slQiZMnkKdHXV09EPDAykIqSR8onDrTE+ReZCWcKOcEIs5yjmgNrC2OXWFR4SQgLEGm1JR+TwocMwqacHzj///HocutOnU9fFamsm3OpPPNKJRsNvn0niChe9MKTg1OVTkoLEEXjmPWg+bcHsCBJ3oUDzkeMDx1OxXBefo0Y1YPToUfn3BX8i50w8KD4zo0622D7LQt3SF7qSFniAUglC576Z/J2WcKrZx43mUCxjCMElTRhnx6NrdoInT57KO2VXcAkrGV/gROj8vklgzi/CS4jG7yOCYkSSAtAZeJ0BWHqzdukMns59JKx2795dG58qR0qCH3Iq49Mk2eeLHoRZxFA8niXnhwbMsAPqhrkkSNuxkwGnDjl2mj1vxWLzv33799fq0tk8St8VMu1R3xde+yy4LBaHpAt39N8SfAIZjkVuFhZyWAhLyrEj2mTAYeo73FefgzB6tOWQke5kCZ+4fYoW2yf1O7rCmJrE0Y6dkz/q8KypTSeuklfIMtipYwxz6AEzNEu3cmqUw4SSpdMSBwmg0CJ2QVqbvduDJ+rgY65SdNZOCLyijgUcPHgIFi9e1HY+jx9/P3OVkEsX5xOM66EdOumtJiY49QZiOodJgsuzG/ZzBIkMO3aSsEb0ex09ejQNHXa0OX9JC4eUT5TjReUkpkSb1dgJFFUv/PZpO0xVHOUItw5fpNBrcdJx8tTJNB+s3Sti0xQLvSAC8Unm0FXms7X2icOxIsAnNYkDaiJnnftE+85brhKeyvHNQs4MBos6xjDF6VOnjKAIh1uLnK8ijy7r8BOpa9U5oVFw8rLyQY0Ox4hSMSJd18hz8spm7XZIR4lZtZDh/PPbW8tODRzpwhGZRMKtOPlcc5qgVa8Fz6EB0x48B+mAlgm5yEIU7NjpB5QIabeoMy6dMs0asYlHkfMVa5+28yOdFZl+KZ4on+TEJCyQrfp3JZMOdVFh2DpEnVmpikKv7eCz9fZpO4WuS+cKY0vIoXxPuy3S9e/Sb8WijsGijjHcIVAYxH7CFyIyX3loFr6ZVXP+ikmqZEHWuQMp6EK5N1DRHcGDpJds7Xby+SCgk+/bifdPvA9W7loZn4ZT5NQZ1zTkLKE8uVIHFOeAEQ5oFUFS6GTAK0IBFTZW/ym3bvz48W3ntDj28MSjyPtyuCxpnwUN0uO0Op9+bh6UtFGgBJ4VzpXpat92Ay9qCk089OKngs/Q+W4XGB9M+/RC6fj39tphYBKHHGjascuuTzVFHWfVMVjUMYY38s624ZQuwB19Omc3kZi8Y0fJ0v5CiZi75M/gWxo8JS1G4oNnePZ+NvjEA2fKZ6L5lF4SemjArOaA5hwDGlQhEu5yXBCwwt2u8Cger5dPXQsRaKGch69TzvJwocx3QyjaIRXODvNpuGmZTyAXX7h8km0U7XAh69wdQbeZEj6Nlaf5lEXBYdN2wal7OMj2KSqlEZzBJE6XaeFdJxgs6hjDX9PlSdGp2KCFSBGJ8R2QLBYj8c5B6IYc9OwdD5gCD5iDHjxxeMcJd7VX05XyifPoilylXHwk2UpZr6QJyWkkrOrtkJDzIEIOKHguiEQuCOCVtFjIyUI41zFkFm0gwGf6qX5qANU+cegYsAtZmg9WlU9RiU+rEG+E05o0HToHYnxiAYf41FvbucWcnQnUYNqnH44tb6stTeJY0zFY1DGGvajTnbxxkdyOHud8+dsDFQVLy8OF4DohMUFntheyO/VqYgQ8VwmGyFkyxxnkE3FKhF4LLiXxN3SIa/euXbCreTl48GD6+JIlS2DSpEkw6YJJPr8Qz2Hyw7F+WMsOd0m/KHS7RXKAT/W5WU6YMA5nkhTs+pxSTrIv5mhBIugJyBnyaQtnFAamQvg1t0+fzwTxic53O4O25JwPiTsRdu+ICZwbhiUd5ZJJnGRVx2BRxxgRTp1082pwR2+lTJvOPnM/8mR+cqEEsUm6l0BdLugoMQdljwXKd7jOUj0iuYzPbOA0DogTerWT0MNOyLFjx+DHP/4RPPvss6mYo9Db2ws33XQzXHPNNeSgGXZAaZ6jeUuyvvgrxaduh1b4FbVPtDA7ktjvHr9TNxHtsRurt9YuPnGdtvr0RwmfVh4d5hOf74REjvHpFRcXcYc+FNa26lqC9zrLUcbimJ06Bos6xghSdfaAbPLoRC42krx6ifTyvqzSG2RJE3zbdUOgsqBzB0yBXQ+vg4fwTN1xQeQQ8kkJkUI149CrJz8sAa6we/cu+MIXvhAUcxp79uyBr3/9H+CFF1bDv//3vw2dXV3BvCUgB01HdIAjSCRdQqK2SYfmE/OHxHT19ulPOIKOciS/TkTywFrikwgX1iWSpTuh8fLoIM8IoPnMdlujstNkILcO6IVOZXxaIW4RmMz5YVhPGDsuPYPBoo4xcpw6sDt2sPK+ErdUlVN6w36P/v5jpsBvbBPvoHuHBNL8BQtKXTt3myxrEKFcpZpm7kJWSEAHKPbLRWIZZLGjBwSckIMH34a//Mu/bPLbX/mYNm/eDP/tv/0t/P4f/IdgWNsruEu5SpJwQOtefBJ1Ae3UgLL2GVoooUVe/7F+eP3112HTpo2WYB47dizMmtULl11+GcyaOSsuQGR8BTfJJyFI6uMzJm3K+dQrkN00DDwJkZJy7Ko49IFJHfhpG5TA8/IUKSePwWBRxxjuoi5brUl18ZIouaGFBxJzeQefb3KV3lY5Xn/1V3/VlmP8zGc+C1etXGlm7KFBE4jVs0GnoL6kuiCftqOUh1ZlYlzQPPs8u038ncJXvvKVlgSdxpYtW+ClF1+AlSuvrpTD5HJFCRIgtnhrv6az+czaZMNake2FCnH71Jyiun8S7BUTagLyyCOPwOOPPx48jrVr18L3v/89WLRoEdx++x2wYOHCoKtMchjik5ho1NlG9bGdMZ8y5Hw6hYNz4bxp06ZULCtMmnSBlRIQE3RkoWIgJnBEqsVQOMkMBos6xrkl6nTOEJgt5XX1NFNotAi94vISaHWhO1g2sWHDxrYd44wZM6IV/elSHaKCS1dfIrpdXlgaPgsHhHLoEo9HDOUebdxI8zpu3Di4/PLL09svvPAC+ZrHHnsMrrpqJTFgSno/XsoBpVw6WeOgmb9/ah4bd1Ng9WFcTytUKItQYZhTme4D/KUvfbE0lI3F8Re+8Ndwzz33NgXyyoAAaYHPQMHtOkvuSG3Gt51P7KoW7WX186vhH/7ha9brlMC7777PVRR0zqRNOKkcEdfTFsgs6xgs6hjDXdSJPOSWp/MneGUEEh+QFJ29SZbWxWCNU2dXl28HFixYmIo6L6cuMGACsfF60Cmpyfm0+ZRGyBXVS6TlgBSLTmSe1K9hL5TYuHED+Zljm4LuL/7if0/DhOo9PvCBa+Cv//r/9l53+PBh6B/oh67OLpvDklXGdNV/OmxYy6RD2KKDdj2L+mlU+/TWZjf/UVx88YtfhEOHDrZ8XA888E2Y2DMRFsxf4LfJNvEpa+ET4nzm/7XCp3vKY7GvXOUHH/y2dxwvvvgi3HDjh2HmzJlhx9PiUzg8OvvyVuGWNR1jCNFgChhnx6kDs5m8Dm/qzc2F2excb9wt0Ubo9m2zkTeuOdUGrFx5VdgBKc1lig+etYk6PQg54WJhcSzQYy6v+iLMbfV4yE364DXXQFdXl/mNVGhw1qxZ5Gv3vrWXECCiZH9TUR7iqs35BM+9wW1Tc1nWPgW66L/79j/906AEncY/futbAUFXxqc8i3zax+vxKVrnU4jiebc9796zO5gu8Ma6tXm/U5aLKIj6leB9D5JbZ2Usg8FOHWN4izqUp1KUcC2m6RK7d1KX4JCoCCndUS5atPiMj005T1deeVWJiBNxAULcrnPmbgZovdgEbHdOc26VichZN1wGVkqEjvfQoUNeTpd6jEJnV2dQgIjgvrtQTZzUFH9Vx5UZnfleETJBbRNxKfNSJrqeCeaU4Gz16tXBT510wQVw2WWXweHm69544w3yNcr5/NnPfgYXX3JJi3xWE3t11lIUJXxWOt/xFhOWY1dsKDepZ1LwOGbMmJlyBETIFaKLKcKTtrDryatfGSzqGCNE1OlBU4cLdWhGd/K6Y0/yWIwZOMGk2HjomdQDd9xxh+W4FLLH9P7w1lt7mwMjPWheddVVjrAQ4Zy6gADxOnjZXifR41NgEYIHSUeEuCFYkIbL0EKJRYsWkp+5bt062LR5EyxcuCgl+umnfwIDAwOkSJ4+fUZcgKCcJXvHBCjdhL3OHMVCHUORFmCkHp54AMlpLvEMl2vXrgl+pgpf33vvvUagvPTSi/DAAw+Qr/35z38GF118cS18yrPKZ/x8z8SgtNonPlz9GT09PeniEpWLaInmSZNgwcIFlivncQbOXq8yXA4l7swDr35lsKhjjCCnDufYeA5IYgk7SLLVsGlXm98mnY7mDP222+9As3Ygtu9Sqzn/Lnhs1626npy9B0UcMWDi54aigzd8NhqO2+mIO8DlImwuQ4O5Em1KmFGC7f/5whfgtttui4rkS8ocJXLHhGoOXa111VD7NDrEVNrRDh1qnwSnLq+qzEvIHb7nnnvSEKRuR1etvLop7F6CrVu3eq/ftm3bvzE+Zet8Eud72UIJfL7ff/9vwUMPPwQvNznM2vFC+OQnfzXN7bRSFAD89glAbstmufRQhOH14ghBpQywqmOwqGOMCFEnpbVzROKIEdCuByCBh0WaVwnWLZ/rr0BVjx8+fCgNX1GYP38B9EycGFlRWCLiSkKwdZbgyMKvwho0jTFixDKYcKEOE5JcOrzee+998Hd/92XyabW6NQQlVn7l43e2IEBEnHtyk/taWmjhfGJhjNzjjEtpTUBAu8wBTkN5Xlnivr9F1YIFC0hR19fXNyg+RSzvLuezLg0S5DMXdxSf0fPdOe/dEKzK9/zsZz6bliYCp+SLoGpNetwAkVYRb5/UHrKcUsdgUccYEaJOd/IQCb1mDgjq6DMt4oVhPFdEhmfwL7/0cvC4rrzyyiwB261AD/SAKasMmG5uXc18UiLEEiNOmNDi0t9KN8Wlyy6FX73rLvjOww9XPiYl6NIdJTo7cwfqzAUdGeqqcaGE5XoSQrng1w4VhttnRPQo9wi10zJBoHLrJroTkBI+IZQmUPNiHix0PD5dISern++hc9536MHOl0PCOZRf54VnoWRyR072gBdKMFjUMUaIU6dCk4ksDb3aHXySVzeI16cH3Jk7HftPf/oM+XcqD2fFihVIrLkzeKAHTCgRIKLYBNzkObWbT6H5BKsiP042x9yYxzGXSeLslW47nwP9Ay0dk3JKVPmOMseTFCAiLET8+mt1tU/H9UTukd9Oi1BhtH0GDlaFtgXaQF4LioGB/qiom9Dd3XY+4Zzgszjfkwp7JlPnuX7ccs0scQfxxSTCObdxnTpRUr/S3aWGwWBRxxj2oi4N9yTFRt4J5YD4oRg9MERtFrejzx975ZVXyNwwhRUrrjQDa3h1HAQHTCA7fL/Qay18AuIz5zTd29XJ+XIXT2Auk4iz9I//+C145eWXWzomFSL8uy9/Ge6++9dg+fIVUcczlg+G85SEFXatL5xth18Rl0Gnrlr77Bo7lnx87969sHXLlnRrOi1MBvr74dVXXy0VSjj/qyU+Jc1nXW3U5dOdbIT43LptG/zoRz9s4ZezTv7AczL4GHV/yeIlZlcUcMSg79ALtOK9vsVRDAaLOsY5JepM+NXkzeXV5AlBBxJtjY4G13CnTiyUaOLVV18J/t1y5dKJFspBRFbEBQfMusKFwg5nZ9wlRiyD9AWedLj08paQEG5V0GE8+uj3Yc7cuTDRuEowKAFClZyAmpwQ7aoWYs4XyoNpn6po8M8D+Zxq94OP33kn9EzsSQXx44//ODgBUZg6bRoxeWiBT6D5rG8Sh8OvaBvAGJ/N28888zSZVziU2LVzJ1y6bBl0dnQ6kwwRdejr5JTBYFHHOLecOjxoWp29JFe/WmEbV4AgEeK6dPp+3+HD6apBChdddDF0p6KDCLVS7hLEHSUq567OWbsvQlyxbL84mIROHN8jj/xr8HNvueUjcN2qVan4+O/f+Abs37/Pe83x48fhqaeeTFceytiK4hJBVzwPTjixrmK5otjnAIVZydXZ6iUVEvtVbbkQn4rDB7/97crHmOUqynh5jkHwKeviU4hsGzDLlaMncvp8P97fDz//+c/PiT7rwP4D0Du7N5yjGHLoOQDLGELwjhKMs+jU5a6CQAO8EP412nlCCDRw6Z0SiF0p9G4VWXX6bEBRzkfQpVu+3K50jwdAQThyZQNm8LW1BQttPi0eham6b/gr4zK/bN26JegW3XLLLXDzzTen4kK5cPfffz9Mnz6dfO3aNWssHqzPbkmAUPvv1tJCrR0NvF0EULtshVO1slrVQTxTqAUSFid6h4U28Fn3RM7mM36+q7D0uYJf/OJApVXwYkiKYzMYLOoY55KoE1h8oAGSEHbW9kGuQHG2t5L6OSmK+83bKj/pzTfXBwfIJUuXFlsHCTwQarEkrAHSvR/u7IHMy6uFTyzi9ABqXefHbcQH4ksUQqvYwknCtq3bgp950003W79TZ2cXfPjDNwVfv2PnDlsgi9YFiJBDswOCEWXS3q7KaqeyaJOyUvvM3uOOOz6eFmM+E5jQq7vdlThzPuXZ4pM439WE4VzBhAkTyDYryJWzovaQNoPBoo5x7og6kEjM4Rm7JGbsxWO2IyecC/06dfvNN9+E48dpx+maaz5oPkNIYl/ZiJirNGAORU6ddBwQI+AkurYFSTGIFgLWdj5FMBQ3b958QjiKVGyEhacvkAcnQIS9qrimkiZa2LpcCkeQVG+fuVDp6oT7f+u3YN78+YM+vjlz5qA2H55gDIbPOvd+tfjUwliEz/dpzfakVlGfG6Ku27QDL2/WylEU/opjBmOIwDl1jLMj6lBnl2Z+Wbk1Oj9JvSYtAJYVzFUvzpP+7WylBOjVbEUphNWrnw8ey+WXX1FU8odY6QeqxAGdcycCtezU/Vr5lGD2dvX41EWHZb41U4JXvCJ+EZEhwbRjx/bU/exUAy4qFbF/376oUIrVn2tVgNTqhMiiREyxHZi9J4dut1n7BDCtMsHt0y/8p/5VCfe/+Rv3w/oN62HD+vWw/8B+OLB/f/r83LnzYNr0aXB84HhwW7HFi5b4JTdaWNQT47MWEWJyPm0+zXme85oQ5/u1116X5mSeVUHX3Q0XTr6QXJhSmqPIOXUMFnWMYS/q9KzciA0k7LAg0btBmGr9lACxi4/acg5gf3Ow3J8PmJSgUyEeL/kZ4kVbY5fQgFlnhXlrGyazTIKq1A95ErovRHwOASZ2Twx+5g9+8Ch87GO35cIOoO9IX7r/a3hgnOAvNjlDASLq4hOXiEHtE5BgtnjMizlnCyVw+5SeuMHtc+nSpbB0yRI0Gcm+z4GmyPvbv/3/gi5dymVZoetB8glnkU8gzvcPfvCDqdANLin2SpT4+8EG69gFCxTn75Q/PmH8+Ao17PzixoJz6hgs6hgjxalLS3BYDgjelxRMh184Snp7K0mOl86YaQbOF1avjrh0l+eV/G0xB9TqV0Lk6fCLfX9oBYjLZ+HQJWhPTb19VT6AgitE6PdVpUhCWLNmDWzYsCENkSns3Lkz+Fq1snjC+AnGjcO7F7TkeBLP1cMnpOHAtA3mXGqF7AqSTCdrFy4pnDoZ0SBYWGBXtPn/xo0boiuOV13/IY+z6JZ1LfIp62qfQlptU5/3luNJnO8dzUnX3LlzYiagd85bLjPeKhBQIXCgJ3HeuR9bJAVVchRZ1TFY1DFGgKhLO0Nvxg6mLpgJJRrno5iBxyrV4WEpFsLq7p4IvbNn04Nj4H5wb0gqJBPo7IeCz5CwK0JcYMKw1hEl9kjZPaEbrrhieZBDVa4kJuaMEFl1fSWBDLJFAVJXeAv/VqgdJo4Q0aFuKZEzJ6u3T5wmcODAgbQm26aNG4N/O3v2HOid1VukC1A5m84EA1rksyarrtjr2eXTOHQJeb4nkJQekbdVmCfoCiHniryYQx8TzCJWnifPvQNeKMFgUccYCdCJ40ZgAHgz9qyvzzr6rI9PjPAoHcjz6XpIjChcffXVJoxi7XtJDJbB2Tu0kl9X36ApUF0143iawRNyhw5y90OifUol0nMJES2UcOtHP5qGA5XoGAxU0dZLLr3UFiKeGCkEMuSLFCoJujrr1OV11QpR7Dh0CQ69FqkBVdunEsTr1q2FI0eOwM5dO+EXJfyqMPftd9wRd+iCIW2ozKc8S3yCx6ffRquc83hHCMXtunXr0qcXL14MU6ZOpSduEOOy4C7oyDsFtW03j8FgUccYYU5dtn2VLSaKkJeerUuTp16+o0R2+6WXXiRfo1bUKbHhOh7x2TuQuxpUy69Dtctq2gLB8AmJM3g6IW1ZcFmMl0khROx1J9DZ0QH33fc5+MY3vpHW6mpJ0F26DG6/7Q4vB8kLv0LEBRVDz6fOibIcOeo6V3OFmyS1rou3T4C0UHMr21/dfvsdaVkNShxHF/VE8r8oPuvLqZPovAaUawG2m2wcZLeNYisZoGxx1BtNMfe9733XvEbt+bzq+uth1XXX+46dbKV9EgIZgBR0gsOvDBZ1jJEi6rRTV8zYwQgSPUN3Z+vmfryPT7Fr1850pk5h0aLF0NEUK5ZTR4i5cOcO0d0RIChA6ttX03LqZJYLlg6iSREm1AOo5rLgUQZ5VPc7Ojrh/vt/C9a9sQ5eefmlprj7RfR4Fi1aBFdeeRX09s6m8+iqiGSoIujqLMEh4oKO4lTfr9A+q4StU1Hd2QU33XwzLFy4kBbHg1zUE+JTDhGfmWDLz3cZPt9tLkMLT2xBp66oYuPPPftsk8dFMGXylHAebah9luR/xvhlMFjUMUaEU+eV0HA6/GK2Xj1cqN9LCZAQlOCgBF1rs3cIh1/cgVWI2uvUuSVN8mUR2eO5YKa4pHiknBaFZZcuSy9KLCvX7pe//KW12lCJuClTpmQritHemAXHxEBJDKDh/DpXgEBtzqfZ1iog6EzuHOYU2cjR9glQSTypBSaf/ORdMHnKZEtQuA4yBEOG9gQDyvisazFPuvAkzGfZ+R5ro1Q+3e5du9PwNoXdu3bB5AsnB8QxaoeRCVxr+XUs6hgs6hgjyKlLO/EkAWvHUieXDodedScfGhT144uaM3LVgb/zzjvW80p0TJ482apNB+RqOCgVH/bsHezwC4A3YIpaVxeKQmTgwdNbdILD2EllZwYPnioMOH7C+NT1MM8hDv0VxT6X8fy6WLkTZ3FKHSIZHJEcECKmreKcAFmtfapadWF3rjOdeFx73XVWCJUUc6X5ddX5FHVNOiAw6XCFMnG+V2mj7uKTjs6O4GuVQ1/WPuO5ihB35IcgR5HBYFHHOCedOi+UlTtK3sCJZ+oVE9GV4Jg1qxe2bNkMr732auoqKaxYcSUp6Cp18C3O3oGczdfEJxo8dPgV8g3ozWDphrGdJHS8alMGQl3eykIAz+U0xwS2+LAd0Ej4FQtkgKAAqY9P8NsnJewABr2Qp7e313tYPaYWlSxcsCgVdkKIcPsEOu8TYvXryiYctdZR9M/3oFBG53trCyWyv1eTNuUa79mz2xPLCxYsdIqNV2yfQOTPuaLZcpDxLh0MBos6xnAWdflWQIkz27aT0J1QluOEVJm1q1n5xZdckl6UY7dnz560U/edD6dj98QcRDp32VJ+XW185nXArER0AGsANc6HK0RCYkTSTh1VA8x37MKDZakD2ko+2FnIqcOhV5fTqu3zwqbwUHvlKqGhdixQpUowh8GJh/TbbihkGApnx/O/zlKOYuB8t9po3k6DbRO1yU984pPwyCPfSc95BeUu33nnJ7JcWtnG9kkIZG9FN4PBoo4x/J06ka/MTOOFkCROKQ6zp1AxoOEQbaiDp0SIwvjx4+Hiiy+OD5hepw7RwTIm8MKhmDoGTUHw6YdejfPhhrWSyGHJMKeuoAuKY3KwdLmEqEAO5ivVvZq4JPTqcuqJjEAbVa9ZvmKFeVzoLeQs3uJ82mKO4lO0nl9XU06dzaddr86aZDjne/Rcj+TUKvH2a5/6NFq4IvOi0qKyQ2/EcMkELpT/CVzShMGijjFSRJ3eAcEuvaHLGhQ7H6S3CSepLBHd1h/uIIkfo9wlX8yViY/0cSL8Umz4DfWGt6S0RQkWeGaFZmI28NAstLJQAtFGcCqdkCxYAyKQ4eyAA9KCSK6lrhpEnKUspp3p4ACnhteYoxTikmiX8fYJloDA4g0GwScMGZ8oJUAiPonzvdJCCXeyodtgkM9q7fNM2yY7dQwWdYwR5NQlRckqy1FCokR30UkxXU9ct46syCGjeWDWQBlwmUhhEuncIRB+ESiRvTaRnO/9ahw6wCFtsKvzJ4XskJUK/9mCg+SUdOygfLCEquEtImld1OV8RnLqUoEhg5x67TNofMo4tyWOnR1ChNZDhnrCgduxqC+cnfHpO3TW+S798z3aRmUL57zj2LW9fUb23GUwWNQxhjVU8n4xc8+DLISj5Jc0kOBN2mWss/dzbVwXCaqGYAcxe6dWx40aPartfKpiypnzKQ2f2E2ik9BzYeJwGFxt6DpOngAJDJRn6oC6xYgdF3T8hAk1OcnCCxViBznEaQXjM5KriERHVNCFxJzv2lHtEbwFPUXy/6hRNbTPsWPt893jM3y+y0iKRfScH7L26Syc8NrneO7wGSzqGMMbqpOXhyQRioE8/CLRbbwCLqm2o4Q3UIKzgbr0HBG/Y/c7dCgNv8a2apLpgHneeee1nc+j772Xuy5JIewkEsqg99iEXPCBGUiRmiOFMOWEYE7t26EB1Bcf1GAJJS4olQ82MDDQdj7PO/88a+GJ5SIl2D1yOS3abLvbZ1kItlU+Q/xOmNDddj7fa7bPOJ/F+e620bLzvYzTeEi7pH1CtfQAIFZky3QrRAknTpzgDp/Boo4xvHH06FGUU+eEXhO98XcRlrE6e6gWcCMHy9IwjPO481zZYAlUyBCJvJ6eHti/fz8smD+/rXyePHkydTeEDmlLaQvlXOxlY6QeKJEgSyL2kpQVOS0RdBXD2Z4DEhHJakXjQH/7RZ16z9GjR2e8eo4SSg3wOPVkcQWzTsYXnkQFCD3ZoPPrwA+3OhdVO+/do+822+nEtvJ5rCnqxjYncgP9/ZZDh0PZSRHPttqoxVWSkO3SE3dlIdhBtk+gaimWTOL6j/Vzh88YMjSYAsbZwFtvvZXvY5nl1qXbXIksL0xdZyVPRLYjgdDlAoR5TEhBlGVwnxfFe+vbwr7tlyEoHhdOiCoVTELYK9yEv9dj8Vr9fvo7SBgzZgwcHzjedj43b9oME5uCEfNpODTfB39nh0f93agL4jbIaf4d7c/H1w6vAr+PXeOreKz4PHJLJpHVI9uxY0fb+dywYQNccMEFxecK+/hNWw1wSrXRYPtEbV2Iov0IUXxPm8f84nCGfy+XT/35pjC0+V42n72ze2Hn9vbzqX4j5VAL9DsWHEqLg+j57rRLl1eJ2qF+r7a1T3x+69+P6IfwZfqM6aakCoPBTh1j2GLDhvUwd97cLLdOnM4duiR36LKQTFFUXnpOUrVEdNdRAi/EFXXsAk4IDDLENXv2bHj11Vehd9bMtvOp3D81IHd2dsDx4+9boVcd4rLcucRJ6C+JF7bMaRmXg3RAcf7X5KlTYP36N2HC+Pbn1KktprZv3w6TJvVAf38/cpRyxzM1jxG/jotUpIHJSu3T5dN1QP3FPHT7DIZgoSycDTChewLs3bs3uL3WmWLdurWwZMlSeOedIygfUTvIiTY94+d7YC/dsvZZNUXgTNsnTsMYd944eP/99+FA89xkMNipYwx7/OiHP4Q5c+c0+++GcR/0rNmbKXvOUfhCvZZ0mKTvwGDXw52xW59NHYvALoM9gKqtycZ0jIE1r79eG5/PPP0MzOrtTcOGxtGR+NiF4zAKdOyRi/M3IU4F+u0oR0RgLj0HlHA6savjOE7jmwJkdlPErn5+dW18PvXUU2mB4I6OTssZw5wKglOLV6p9ElwWrqfwHFDjBAqiYLDjzAnCtbPbJl1PTQmQefPnpd+5LqjfatIFk2Ds2HHW92rpfHfaJfV6QbRPabVPeUbt03I7PQcve07xueyyZfDsMz/ljp7Boo4xQty69RvSy4IFC2DcuHF22NDraIsBVERChQKLDByqEui9QmEYt2OvEIL1xYewBoJGY1Q6WM6eMxu+89DDtfKpQlyP//hxmL9gPowbO84WrJZIiHCJw0ohXgOcSlFxwBSCGCyFJ4aFoMOvM2bMgMuaA+ZXv/L3tblKCkf6+poTjx+ljvL548dboVccsrM5jbdR77WYSzTJiLU/ewJEizlBbqsmvHQAzacSID/+0Y/T71wX1G/1rW8+kPKpxJ0fym79fKfOeVlz+6SEOb5MmjTJ8FlHagCDEQOHXxlnFQ8/9FB6vXzF8nRAeffdd5uXo+ljOMxVlKQbxEKJ9E4gJFMpXKiTrJ1QDIRDXCrhXA1cM2bOSF+nBMj+GsMwKrdM4YXVmXN1+x23w7Fjx+DQwUPptTh9Ok/qT1DlDcRJkgBJrJOMHuQUhbhMXa5Bh7P9BRJ6Ky3lzrl8XnjhBbXxqp3Vu+6+K+UxbaPvvAunhTChV5vTgiVZZ/t02qYXgoV4yFAl8CvxMXXaVOhu8vpwc8JRp4usFgjpice3Hnigyefdac6i2o/52HvH4IRakFL1fE+SYIFkWcYnap+hdlqpfYK/IEK1z5nN813x+YNHf2DOxSlTp3JHz2BRxxjemN07GzZt3GSEncqxu/32O2D2nDnpYydPnEg7+lpQ9PThgVdGXiFDOwNkj6lOvRAFa5od/KOWozR37py2fyX1ns88A0bYqTyeD998E8ybNy997HRT1NXpap0Rp4Gagvoxl08VIsSOkspVbDd6e3stYaf4vK0plBWfM2cNFZ8RcTiI9knxqUTWA//9m9aEQ09E2olJPZPMbeXOf2n/l+Cmm25KJ3MaSjT/W2yfagGISnnQfD70z/9iOXSYbwaDRR1jWGLJ0iXw+OOPWx29ukyfPh0uuvgimDixByaisgoqUT01k9KaVlmSdZLo7YSKa/1aamPwKoOodAfG4DXh5OV4/bXXoK/vSPP7rPcG/rlz59ZSpy7d0xZBDSo7vvL3UT4LDvPb6DHrNYPh0xUXLn8ud5bjZPO5/s03Mz43bPDCgypsX4eoW7JksXVfiR7lDqoVxhdddFFa8mNak1uaT6edBq6zv8v/TQbJZ9BpQu20BT4VFi5c2HY+VUpAWtIkrymoPldN5pRAp/nMOazEJ1gLf2rnE+ydYbZv2562j53Nc45y4xcvWswdPoNFHWN4Y/ny5XDhhRfCwYMHvcGT6hhV595oNNIwB752L4m61oOBuu8NDIBCjcSKQadEhJvHpMKY+vbp/La6roo77ri9Fj6VU6eE3fqmkBwMn+7tRHOa89jAfOZ/H+UTwEvg9/KXHB7x7apbK91666218KnE4nXXXQvPOwsxlBjRYTUXXtvU90N8ak4HwafVRokLbput8Hn11Ven4qsOrLp+VZrzWZVPxd+onMdRxLmO22nanjWn+YXiU08mvNXA1sKpck6r8qkmHN0Tu3mrMAaLOsbwx2c+8z/C3/zNF6uZPnpvU9Qpj3KSyBvN51UHL/RgqfKekKjTHT160/igia5jnXx14TUXbrzxhtr4/PznPwd/9mf/sTKf6eDk8JgKkZxHqbhUg6b6viE+z2TQVNwiQdeqQFaTgltv/UhtfN55552wZs3atKRJFeDB3nzvnEfDZy6mvTZKTTrcCYfDp2mbDq+nHU6rCgol5j76sY/WxueqVavg1Vdehb6KizF0Hmh6/M126dellKZtKkEnkEAmRR1xroOz8CF0zp9GE7pWBNotH/kId/SMIcUopmDk4nOf//Vfb3Z+c71ZbsOe8bqXRug51IFWua1CgwcPHYI9u6sX57SSm506UVhQuHtb4k4bu2/BmTmalZ8OCLpWOncVcv3TP/0TmDhxYm2/p3rvKVMmwyvNgbNlPtGgZ246PHr72BJ8UvziAfF0wPXUl1actD/+kz9KhV1dUCuIVT6UEnat8CkDOx3IEtGLRZrFD+Vu4udVG0WXwfCpJwVzmhOPuqAKb6uV7uvWrYNTp061xKekFuyEJmVlfAbO+9POOY8vosUJnMKvfPzjMB/tHIPSJMHZTwSoO2RGpQTqUfNkTtPOf/3OQ1/nEY5FHYNF3ZCKOvXvihUroH+gP81LOZOBk97Kx6/pRYoQoqMPDpotuh8KamXqf/7P/yl16uqG+ozBCDvpiDm8atIdXD0XkwhRVxk0B+MmaUH3H//Tn9WSS+dCLZhQwnHTps3plmEtceo4QqFJRymfIRGC2+YZ8Kkcuk9/+tPNc3F57XyOHz8elixe0pKwo9ofBLZDc+v3xc73mPuenvvo0mr49ON33gmXXXYZIURZ1DHqRcIUjFw88dTTP2k0GjfqvB+TqzKKzl8xuVdUbssgRZ2+rVbCPvLII7Bx48aWvoPJp3GuqQvkn5eEZvsRIYgH3lbcOZVDd/vtt5UujpB+r39Gr925cxd8/evf8HLsSjuEnMMyPsENGVbgkwpptzpYqhDePfd8JqtrSIyIMjBSRh/3xk1/5Dx46CB897vfa7nYseGQyqeryCclaig+cYpCVagcuo/d9rF8daokBIbLnf+a0KpQ8n7+WP/AAHzve9+F1159rWU+NYexNqpfi68r8Umc861gzpw58JFbb4WpU6cG3rvYjpAqAu0Xhxbe1nje37hbHEr59Ofv++yHeYRjUcdgUXfWRF2+5zzs3r2nKfA2pp2+3UAT6so8Z9zFfJVs1pEnUGi5xBowQ2IpAb+OVSikFnfMsoULVVe6tlvU6afffvttePXVV+BYq5uKG64wnyiPzvpd6NAYxSEWfGEXw/9uyi1Trq4Sc5aHMUSiTj+u6v5t2rQJDh06FHjP0O+i26IWHjl3eg/7xO2S7e8oi32titWszubyQX+HOBy1/Zla5dozaVJUsNUl6vR9tRp2/Zvr4XDf4ejxStemyjm0V8Imft+QEA6YV18Rb79WCCf6cCRpnnV1dsKSJUuge+LEsLvNoo4xBOCFEoxzCiqkNkeF1XRHbca+Vm+DJerO7HZrOJdWuk2efCHcdtttgxKHsedDoaTBPicDN2RMJ50FqIK51157bVQASmLwb+0xCO4J6wu2Co9V/buzABX6vfLKKz3RRt8v7kTvW/QR96N/D/ZescR9KvWDwThXwNuEMRgMBoPBYLCoYzAYDAaDwWCwqGMwGAwGg8FgsKhjMBgMBoPBYLCoYzAYDAaDwWBRx2AwGAwGg8FgUcdgMBgMBoPBYFHHYDAYDAaDwWBRx2AwGAwGg8GijsFgMBgMBoPBoo7BYDAYDAaDwaKOwWAwGAwGg8GijsFgMBgMBoNFHYPBYDAYDAaDRR2DwWAwGAwGoyaMZgoY5xYkQJJAo3lJzKWBbkN+X702ya/zv5T6HWR6R1oXkT5v37dfI7IXgBD5Y+o/Ubxe6NcK/DfCf6x5e+zYLujungDjx48/e0ymx3I6PZ6ULcVfI+M2407dB8NvhozTjEuJrolL+r6IL8SrkDZ3/mM+d9nzwvtN1PMdnR0wbuzYs8pnyk7KXwMajYbTHvXt9B9ITNtMUMvW7RKKtgU2JzG+0jYo7LYtKL7U3wvptFfUfpsX9R06m5x2dnWdVT47Ozqgo3kZM2aMaZ8J4HM/MW2zuEbnupSmfWbNMTvPBT6/3TYn3PNeOK8p2qHLofu74M/R5xSDwaKOMeKhBieFRiPrFGU6MILpxIsLGjwdUWdEYdqpQy7iwBJbemA0g5wQppPOBkhhvc68xnTywrzW/nv0mubz7x59Fw4cOADnnX8+zJndC+PGjRtSPk+eOAEnTp5MB0jFaZIKkSZZImn+n1jCOCpiEsxjwSclLIrB0eGQ4E7/HcWh+T3S12fvcezYe3CoeT169GiYOXM6nHfeeUM81ZBpm2vkPKa3G4XoKEQeFiLUpAMJikbOX4IEg8hEn7pugFA/FxLXxbFgQVG1TRo+8+eO9R9Lv8+E5uRjbNfYIeVzTPN3PL95bqjfE/NXcNpA3Fbkk2yT0rQhv626j2f3E/U3zQ9SjyX5a9PeqfljpNItfV4LyuxAsvZ6Or1ujBoFo5oXBuNsgMOvjLPuzJ0+dSp1lKTpoAFdg+UwmAHKdMLFpbgvaUcOJJrZg3FNQIL9OHL9IP+7XC6i1wJ6TL8iuy9zYaluH333KKxfvwHefvvtIWO0v38Ajh8/ng5aZtCzBj8wDltxEcgNEkhkhPkEzKfljqLfDzODuJOaMzwweuLc4bn574mTJ2D79h1wuK9vaCccWsiSIgKcttlK+9TvCXQbJa4BXVNt0m7ABXfOT5G+5tTpU3Do4CHoG0I+OzrGpIJOiTUJTjsi2lmrfArnN8Hir2irlNsX4E7avFqPSft3Uc+eak6m1KSKwWCnjjHicPLEydwRSrIZcOocqdkyEgTNMVU0shmIzKKzbt9beBhoAKRCrPbg6XT2REjH68AtgYdHBrBFCu7kTwnYsnVbczDrTEOydeLYsWOpQ6ccmOK7JKl1mXGY5IJO8SjzeZ36rkl+P6nMpyBEHD14Fq/RThP+AbHAKxPJ+nrP7j3pn0/q6alZ0J1Ov2fGm91GlRvcQLcT1DZxU8DhQiAEnBUOFL4gkZ6wg0IwE22y4NmddFivRM1UwtGjR9NzsHtid+0OXVca8s3aHHh8Wuyb9qm4L0KcNJ/Ze2A+gZ5oeJMSW+DJkjYZm3Toe6fURLV5vowZ08GdPIOdOsbIwCnt0DkOSDFjt/NihMlrEdZtb2ZP5My5nb0MuErUrF06Ai8sPByBZ4+csGHjxvQ714UTJ07A8ePvO84j4lVSTogg8rmEF6YWUT4dlw7sAdUIPC0yJRo8IeDYRUSyfm7vW3vT71ynQ3fq1GnLjQnyKQTJncQ5mm67FX5+FxDnARCCRFJOXcVJh7QcJiON4MiRI6nDWxeUaFS5kZbId3I0hQzkFwY4tG8LLwex6FuENdFwJ3H2Oe62RRnkLjTp0MLu9OlT3NEzWNQxhj9UB3ry5Ek6H0YGwqdWB1/kXwktPNL7dq5MKOEcvFBXlcEz3MmD56A4nX0uYvfu3Vcbp++99x7Q4VZbKAsitCVwaAvnGGnBUsKnzaP03SVJuCCaHM+xwy6UPVBihaJCh/v376910hHK2bInHpFQoRYcUlh5W0JExDXIQMoA8tscUVQIuZBjR086zOP5A3WGYdViiMJdi0zeiFQLETjfrdzXYL/hTuR8bu1zXIadOtf1lG443BZ4J97nMCxjaMHhV8ZZwenTp9POuZGHV7JwaxaGweHW3DNJn0v/k1nYMA3dgA4hFoIKkCNEduRkSLbi4GkJDXfWXjhPtLOUXf/iF7+EOXNm1+DSnUxdpWyhicthEdrS4Wv1nA4XSs2pTkS3XBw3BBvmU0gZ5dZ1QWzHDjtzrqBz7qPQ/MFDh5p8zqll0qHaaLra1QsP2qHClL+GHX7VUe/EcXSxS2S5055gBic0S4kSO0cR8Hu5nKIwY2jSoe4PDAykYlYtYGg3RjUalqC3w62i8BiE3T4L1yyxz/cAn9CSQ++4hhUnccFz3xF46rNPnxZmARiDwaKOMTxFnXJB9MCS2IIMd+xWHl2SrUpLUP6XnVfnDlxuBy5a7OylFSb0XJDQrB0vEnCuVXhLXbraXEoiC0NqsZuXMHGFcoIGSZGRqsVyzqYRy2B9r9b5pFxPIASJJTrM47Zr4gk8sGJfaT5Yu0udKEGnjk+1NQnY4fL5TDkVefsE1D5lAtKXi077jOTXOSFf11EGoo16Qs60RQgKD3ytLkrYtZvPRi7oEsMJPXkrhB1qnzIpzaN1+fTz6/w2CFhYA/jchiZxUcfOF86nT52ERgfn1jFY1DGGMfRqS2Rq2Z26FnZGiOTWh8wHz/Q6cft3oFcNymg+mB169XO/gBR5YM/WcT5ZyeCp8t7aLep0KNuMLJRQ1hzmF9ehk5m1VMqniLohhPtp5SsGXCVrsCRCr6Rjl71ff39/20WIQCuHNZ/W4h2LT7zYRGm5zHnW7TPBvwLZNoGooxhwlYFw6bx26LZTXI+myHmkJh26LbUbCdhtgJq8FcKObp/Zj+BZqpZLH3bo3Rw7gt+YwJMRl94693HeXq5dpeAOn8GijjG8gQWU3bFjYVeIEOmEXnWYEJxhE4dDXGcpNHs3HTwgkQLlLl1QyJUMnnWJ5GyVJiWUM/4a+YionU8zYOLVr2RlDEkOmqV8hvIlwQ67WoOmhEDoVfoCL+dcuWrtb6CQ85m3R2/iUawUVt9V10/MXpiLD6n9T99JDocMwS9AXCaeY3lgngPq8kkLu9rOeXfiRgg73D7BarP6R7BksscnkLl0gnboBeXg+QIv1Falm3ZhOXbZs7oGJ4PBoo4xfEUdOLW1PGGnQ4NQiLk89ApJFsYxeg6H44DIdwnO3J3dInAHL2TYpbOu8Uy+xAVxw4c1iORYGRg7T6kQclmhZzf0WvxSZ8pnyPX0w7H2alhb6BGCREqoSyebnR6IHEUj4kg+M4euaJ+u82mHCr38OoF3SKA5dB1Of6JR1QENhGDrOt9NWZ2AsMPhbDzRyAuRSy2WrfPdPf6q+XW2c+zyKymXDoeypT+JCzp2kvt7Bos6xkhy6hxhVwg5KKKFxriTJrcpsSfs4eR+Mh8sLEAs0Rbo4H1XSVZzQWobNAmnxcujgzyCLU3elxF2uj5gUhOfrggBetD0SqMAoAHSXUkr7VWd7VYh1MQjxCcUO6AUSf0QdD7BEQak8xbh0F8pC/6Eo5W2Kmtuo/p4jDgmhB1qy1XaJ8UnOekg8xV9V164/FIuHXGOS2IyB2giwpqOwaKOMRJUXR7eAk/YFUJOL4bItwnSDl0CcWeJcERwuBBQSKZSSCvY2TtJ7TFXqebwlgzx6XGjuSwCiCa0pd0QR9lQOxu0yie5MhYADaSOS+c6oEPsgkioxmdGZM5nxfZJCbryfDC6/mLwQjjKXojbEh6y1jZqOfOksHPPdap9JvRCCdd5bJVPy5UXcUfZWdwSOsdxOSS26hgs6hgjxKlTeyo2ggOnBHDy6BKzB2eWWiNJdyW0xZJbZ6wlAVI6eMrA4AnkSrt6nBCbT/VJDZN0nlh5Xyap31Tod8KFkhLKZ8qnI0jy7bfIAsZUiJtwlWpzQvLFCzSf+UpOsw+xy2egfRIOIC52bS0sMVwBKUBiaQIxR1l67pLvLNU1iZOEK9/QqRYyIUKviE8tjpLW+ISAqKP4jK7W9rgFYoeakMDj/p7Boo4xEkRdWqiqGDiLMJYuY2DP2PF2QVRoC40fngB5/fXXYc+e3bBx40bzurFjx8LixYvhsssvh0k9k3wBEhkw3Q7ecz6cGbs7eNYwZiI+C/6EVz9NixEU2pIotBXcQlQS7hKUil6KTzIECzIQjqUcUPAEXh1OXZhPkW8wX3CUmHaKF/LoV1CJ/RAWHzhciCZA1cKxkSK7Xn6j00ZxO63BqQMq3cLKowNLLEt3YZR5o0HymX83EeMTcWi5yO4ELjDRoD6XnToGizrG8Bd1ekBPIzAqbFeIOBx+dR26NAQL2FkCz1nCeUFKxH31q38PBw8eJI9j7dq18OCDD8I111wDd939a2mpkUoDKBCDRsXBsz7nUzrhayDyvuwVsDK3QxMytOXz6Ym5UjfEqcdG7Bvr3QbaAZFEjbG6wlsmxBzg0zCq22cuRqQbeiUS+62QIeUwVXSJRYXwNhYkwuXTdT5ljeHX/BgaERFtt09ZOHTRhVGD4BNad+hBRvaTBUm7dZIXSjBY1DFGklOHcmwg8Z83M3ZdeEOi0KsWedL+G4znn3+uKei+Wul4XnzxRdi8eQvc/1v3w4zpMyp29kDm2cjQ4FnnQgli4YkpCCNl4Xom0hRzNflLaCDXDpS3iIVcLOGKXGEeE9aWbOA7ILGCsJEQFzg7McjaYlv0execAqpJ5wi7QPt0ebV3LvHDzlBR0FmvDbnLAruehJNV86RDtxuyYNEg2mc5n0CucK3Ep3Dz6kRE7PkunRd+ZVXHYFHHGEmiTs/gzWxdd+Z4xp5gYaffI1yCY/Xzz8PXvva1lo7p8OFD8MA3vwm/+7u/lzt2bmdfFo4Fb0cFIFbi1VXSRB0rNjqTouCXJUYAO3QmsZ/i1N1T1A992vUAXRcTOZ7UwCqoxHQRCMcC6dLVlbMU4jPRfCaJzSdUb5/aCXQFCBDuLyAnEyICpEwEkvvJUi6drMtJzkW/zqJDXIbap0kNMO0zIScbg+ETSgRd2KGPc0o5yqzpGCzqGCNC1GWDZlYWV6AOHZfdyGp+SXuRhKk5TC+UUDsMfPvb3x7Uce3duxd++MMfwic+8QlC0ImSQVMEwrFDMWjmCw8amsDE2XEj37YK8alFUeEu5a8jc+tsR8QVc54bAuFVxRDaNxYCYcXQQCprXF2Y5ihqPhtor7own6Xt0zlUizfNJxXOBn/hBCVASA69UDYqiosKbnthwxpUnc5R9NsmGH4tPtHEQ+K2meMfmpO21atXkx83btw4+O3f+R1YtGiRxedbb70FX/7yl9MJHIUFCxbAb//27xBuKDgr3aFcQNfufjIYLOoY55JTpwbNdKYu7Bk7CseYzj6/Tsy2TUlwzHziiSdSYTdY/PSnz8CqVatgYk8PKehEQGAE83esEFeNxXKdHDA3vGVER5qamKCirtLa0squ5exuoC5pNwTiIUMRKeTsDp50CFba9encXRRq5VM4bhJyj5Gwq9o+wd3eCz8mZdgBxbxRgo7K+yILaoMJx1J5kbWc7+DkKALRPiXRPs3+0InVNhVmzZoV/Dx1/r/QFHwLFyy0+Ny8eXNQ0Cn05Od80KEX4RAsGY7l1a+MIUaDKWCcJVXnDUipc4C289H7w+prmW6FhW7riyxuq8effPLJ4MfeeOOH4a/+j/8Tfv8P/iBd/RoUds/+NC7ozHPgD5jRzr6m1YXo+ATmUgjyuEX+nOZPCmFzKvDfFveza/SbCV2bDr8fncQvAgLEHTyrDpq4KHQtTp3Fp/T5FI5jRrVPiS4Op/jvLC7RewkqpzMm6MTgQrCeIBnC9ili7VMW7cvl8wPXfDD6mVu2bLFyO9XfvPHGuujfXHnlVQE+A/vGloVj62qfDAY7dYxzCQK5Dkl+302W9hwQPHMHbYgk1spM1WkPDNAunQrF3HXXXenfL2jO4H/zN++HL37xb8jXbt+2rYKgC4cFY5e6nE+dA2ZEiU5ZAorPIvQKBKfkIoGAw4TDeuC6SUCINgjnKFIDpgkT6pDhEIS2fD51fmKRGlDWPt2FEso9UuE/yw90csEKnqnt5uzwac/EHuieODEsQFBagKiQEyZkjZX/MJ8m1Fq0T6DaZ6Ij2MUR4YUSY7u64PLLL4d162ihdujQIXhrzx6YMXOGEaxbt26NunRz580L8imqnOtAP8ZgsKhjDHOjLu/kI8n8RcV+aTp8iTr1BPz8nz3NTjyEG264IXNL8oFl/oIFMGnSJDh8+LD32n379lUUdMJxpcpn8LXt/SqKMDbK1s+4c4SyJEKvLqfSGZRtQUcslgAI75fr5SRCuQApde1QuLHtRp3PJ04NyASH3S699km0zS984a/bdozXXbcK7viVX4kLkApuqLsvby3ney7yrbZZ1j5120KpAe7xLVt2WVDUKahw6/Tp09P3+dkbb0SP8eKLLykXdJZDD75DL1wXGXihBGNIweFXxtlSdVYoywrh6VCUIEKvJoRlh6d0SGfzli3Bj5yv82vQ56nE6BC2bd/WkqCjVruS4a166LTDWyjUV4S0bB5xqNDmVNjhWxT2Kv6eCLGKUDhNEAJZVBYgeMCkOK1toUSAz4JHIvRqcWmHbw8eOtjWQ9y3f1/GSakAibdLUuDVMemo3D79UDZ9vku4+gNXR9Motm7dYt5P3Y7h2uuuqyjoIs5cYEUsg8FOHWNYww2/YjcuSfwZuxd6TRK0y4TvKFHo6uy0E/abj6nFEMGBSLQg6ERswHTq2dXpfGoOPGcJ85mFtrLFhAWf7i5MMuDS2Y4d2CFX6YcJsbMW3YJNxAVHcHWsPNt8htqnfWAqHNhu4SlMHUDRUn4ddpSFtwNCPVadmqQljWp8StMe4+e7zN26l19+ifzYn/3sZ0Y8bt26LXh4ys2b2N3dkqCzORSRNsv9PYNFHWPYG3XZbD1Jsn2spOm0wXT2essDN7SVYEHhzczpnBmVQ+cKOihJYt6+YzvMmTu3JUFndfbYlQK3DEe7+RRWeEtzWNRT80OF6d9pTqmQa4m4cwUdODW9wA2/gizNr6NFnAiHsmvahskNv+I2KSEeevXaZ7CgcxuOMiSYIwJERoo/15X3aUr+iAQaVdsnSsnw+ETHuHLlyqCo08Ju+owZsG/f3uBrli9fUVIPMHyO006oROFYVnUMFnWM4a/q8kFG5AWHoRB3ngOSO3oJmqvjAdQVH6FhBeXTFeIj7i5ks3wYlKArktvdlXD1bWtll4Rx8uqIXCVX3AXfHAIlOEJiDsDLe8vcjyrV/UXUzQNPGNbjLFF8BgUd0T4Th7+eiCs8yEOsJJApPqMh7Zomcfq9RcX2GTzfnTI7sdzYdKK3bWtpiSMl6soc5CCfosSh5/Arg0UdY7hDOOGtrDPPN5gnHBAvqT//26rdpbQqyYMluKJuojUIipZm78XzYIdna3M+890MEtvtTP9LCEcJJ6LnxxUUya6TZzl1iE8s2NGWXmDVqwNLIOPBsIoA8d976PgMhQpD7RNDrVZtJ6ZNnRYvYRJtk9Q2WVDbwhMTfk2k53zG2mfZ+a7vX3LJJfDss8/Sjvu2bdAXEHwKF110EXR2dtD5cqI6n8JdSczhVwaLOsbIMeryDjHJ93jVbhok8dAWKu5K9ZXKDenr6/Me7+s7nIZ7wRUgEUVglYsY5OydzAerhc984YHZZg0rNMRrPoCm2UqJ43xQnBLFhxW/jz/+OKxf/yYMDAyY5y+++GK46aabYdq06Y5LOYj8OkrEhfbirSv8mr835rM09BrhUuVt/fbv/E/gbkhvO59uaRN/hbHmVbVPnFNXKpDLBEieJlBbONu0TzDirrR9lpzvuo1et+r6oKhTK9kPH+4LHtvSpReREw7XVS7n092yTdS8PzGDwaKOcS6JOinMSKn3diWdOsgKVmUz9XwgSHwnRKaiblJA1PVZocEimT98jN1W4nQL4S0RKAxbq7MEVl21Qoy4wkPmoW68MKLYvYNeKGHkBuxvDpBf/rsvw3Ek5jTWr1+fXu6662644oornJAs+O4HBPLrQgMmELXsauUzSw2I8dlK++zs7IR58+Z5nNq3KQfUdTyh5dqI5QLEKddRh/Np2pe0xJ3teOafbxaehPnEbXRi98To5x8/PhB8bs6cOamLSOcbQsuCznXo2apjsKhjjAhRp8MxMg/B4M7eqgOmB7YEDZuBsXxiT7hz37d3L3KRsk9TiyGCom7CBOSEtB7eEq4AqbGD16UtirxEMCFtQIKZSvo3Qg/iCyWUMFb7ZsYGSIWHH34IOpoCZumSpY6YjWynFgh5eQOmpHLqatyrNClSA3RRbEqIVG2fvmAOFXQGIjcRnJ0ghC/wqgpkGS4AXd9eupLIm835xBM6/d1b4PO1116LfvzEiT1w5Ajt1q1ZswZuuOFGujQJJfYqCTq0SIi7ewaLOsbIcOp0IjqQnb007lHmJBUrNBMr+Qvn2kxvirYQ3lz/JkyZOtU4Iyp0uHPHjoBLNxEmTOi2ZuxawFWfvduCrs5BU5dVoEKvWWEIaQk8abkfOddRBSLh+9//Xqmg0/jhYz+AxYsX24IYfPeDChfiGnHhARPqdeo0n2gRD1gTD+zQ4fapuS3applU7N8PP3j0+4QLSt5xSvBJ7/HLLrsMljUv0RIwFQVI3Tl1sfapW6SUFJ/2+R7K+YyJOpUzN3fuPHis2SYpvPTSi3D9hz5UqZxOa3xKDr8yWNQxRpBTl3fylgNihWAhd5NkEYpB03a3cpV6ncqPeTQfOF2oDb6VezRt2rR04HrssceCx6dCMpW2AArM0CEm9mpx6kTuhIAn4Ir8pcJRymjUYq4QRmjNpuWAHR84DhvWr698PEeOHEkF8+zZc7wN4/38OnAEMrHbBJkPVt/qQhM6Q9vWgZsiYLa3wu2zsDzdSnUD/f2wffv2th2jCudeumxZNFxYRSALOVQ7noTbZ5hP+3yXhFg80ncEdkQc9yuuWA5Tp04Lirrjx4/DurVrU4FcpUBza4JOsKhjsKhjjBBRl9ap0yFCsylYXpsUJ02DnQ8GhdjzHbYJaYj1wIH9ZOf9ta99Nc33OnDgAOzcuTN4fMuag6U7MJbmhFmrZZ38J2clbZ0iOVuhKS3B7DogxmXCx0Jxmg9I+/bvbfmYFL+9vbMth85y5yAikEFWHzCHgE/t1JGCWVZrn+0UdLo9k+FW7wLVBUitOXVV2qc0qQNVzneFp556Ivi5XV1dsHjJkvQ3UpM5dd5TWPfGOrj00mWlEziQ0Jqg45w6xhCDtwljnDVRV2wPJMy2QULircPyrcLMtkIy3zoMbTOELiLfYujGG2+MDoQvvvhiVNApdykVI8IOCwoz6KHOPBByFdYm6lB7KMbL87P2WhWGZ8OhdPg0W7MhLs2WbbnLMsiBXPMkhLDD1sK5SOdaVBEgddUBs/nMOBAez620zzqKD0e5NI+3IujqywKr3D6r8tm8qPpzGzZsCH7mEpXXmb/31Vd/IPi63bt2Qd+RPpvP4KKo1vhkScdgUccY/qJOSKcjL/Z6LTpwRxRIYXW6wrno16mOfO7cuYM+tptuvtnr3LGww3vNVsmh8xL9awxv0Xw6Ayd+jRQWx9LhUr9OhfpaRZqTSPxuBY+2iHcHSH87MGLArHH1a9vbZ5sPVCLhbH22DIm7anzW5dRVbp8V+VSXDRvWpxO1EJSQ07/XIpXjGcFzzz5r8RmcaLQi6DinjsGijjFSnDpBdH62AyKMw1Nsll7cD16az3/qU59O82haxe233wFTJk+xB0shHDcJb0YvwoJOCNsBqXnQFEJ4A6c1gErtwkl783lH4LkX9fyUKVPSUFYr6O3ttX5jT0A67gcWzKTjSQyYoq5traTPo+0sV2+f+nvMmT2n3Uad1zYLDsWgBLKocdJRvX2W86k5febpp4OfqRY7qXarOens6ITFi5cEX79ly+Z08ZTPZS7KNUctCGTBoo4xxOCcOsZZE3Wm+HCeU5flKCVWMrXMk2rS29mNwqaAcGK/Kqlx7333wb/884Owa9eu0uNRTpQSdAsXLfJz6aDIjYPQ6sKS/Lq6O3h8THauEhR1ANHCiILPnEx0WPlaRO8zVl59NTz7059WOh6VnzRhwgQ/8Rzs3CQgS0iAL5D1Y+SAWV9JEzf3K0kSh89w+3QX8qg2qRbghFw3+4Z3x6ppp6B2UQgm9UNo0QmUCpC6dpQYXPsM87lr1850QU4IavV1sV1f9vmLmuf35s2byNe///77TWG3BS65+BL7/IbQqutqgo5FHYNFHWPYQ8+6jSiT4Ak8cx+K4sTWOJcAkdhf3Ozo6IDP3nNvmi/zyisvNzvzzd5xqJm8EiCXXHppKuzwrhPkIgmiYw+vjgskW9fCp7+a2OJT5kn+ScGnFiOYT1cc45urVl0Pu3bugt274yJZcfrhm26yxXGET0/gBbZoCvNbhwapwGesfRJtU/Fyz733gU0v2kEC1U8MXWM+de03dyVxaTkOiIcP6y65U7V9lvG5bt266GdeddXKzB1E/Knz/IknHk8FHIXXX3stLYHiTeIgULMOi+YQnyzqGCzqGCPKqTPFh+H/Z+/co6So8jv+6xkEYXAYkIczvBVEEVFANCK+zlFUNiq6atz9I9nEbHI2/uU52U3+zzkxHv/ZP6Ix2Tx2N7rrrgeyuFFXV5G3i7xUHiPuAsMQUYYhDLoDGJi6qVvTVX3r1q1Xd916dH2/nEt3VVd3z3zn1r2f+7svT0ue2dseMHdUTj7nByL8/LTp02natOnW86/OfUXH+45bCwtbY76EAt+9jRgp11arFe7qDeqV219ZFQulMqaOOevQMW8Fys8zt5+sFvL0/7GE83y3iM2bN9GOHduVl/Iu1wdXPWQBtWsigwAlflFQ2T8KiXhq3SbMBiYbLoT8FDl/SpFkGeJc+VYFdk4QVQFz4r6iPo0OirjbhKGYLZuX/OnnJx9H99FHHwY0LKZYkWJ7trXoLY/W7d27V/m+Eyf66GjvUZo6daoyb0ZfD1CvnxAEqINyB3Wulru93EZFKvCFtU7sik5swasqdBXg2ec4bEybNs29vAaxYJjzqyxdgOfTxWWo1l9Lx085IiJH55iwnkklYPVhV7e26R/f33XJkiW0Z+8e6uvrM0H5nDVb+Io5c4bHIwpRDSXMCX6ScgkJirX9FbHs8qfjXYz8GZhHBaDzgJzLT9k7Rd4M6S5UN0D0RJZi588QP9/fvi3w+xYsWOC+vwU/58+/xhfquPiexl1dXZEi9HKE2VCuX2mgwIcAdVBZInXCOv1Sge+01sWWe4WiRWaYNxIS1tXlVJQUBh8hrXfn9zPU69fp8NNQjwFzVZis1q3tArkonkp+XnJJO9188zKPn2JFqvZTgI/I4+skQBbzj7MJffKhOl8/SeFn3Pwp5knhnpDzau2RBM8kX6V8R8r8aIQDs1Y/KV7+DPFz+rTpdMsty63nvb291uOoi0dZjQouPt7Qirwr7v2pZqPu9jvusKL2X3xx2kxfWC9NmjiJRo4aaTZcRlWHDlBAAy7qfrsGljSBAHVQ2SJ1FXt/+erCo9JYJSZ0sSoCSn4D+1Vg5wd0gV1byvFgpFiYNFrrXdvsQsdPt4+yn66u10qMH6deP2U4Jv/KkhT+hS2oS9rH1AX7GZQ//SbyiP6JHrr9rB4p4FjOi4FRu5AGB7MbBQL4ZemnJ38q/OTDKewhFX9w881KP+VIZ+080fXXLfK570mxALZPhF72k8gLdJgoAQHqoHJF6mqz3ipkF/h2NKniFP5OgS5NlFBBhrISdXXDOCdCI3buLsOw7teIKS0/nQiIvTNHxdnC1OnaYp5aUwkdyfhJsboMI4+v0z2mLsTPoPwZBHLeSHKwj75+BnZnU2iDw3Ose8xnxPwZyU8VHCsbHD5gLAEd+eZN8t8GUIZmAeiwpAkEqIPKAXXVleNVLXZ3V4zVfK+W6WLLvRJQ96grSv+IiLqiDOoyVBb6qu5BSnMMmNpPfpKJe2dWajEPVvHUmkE1ZmQ/w7pgVZUlBURBg1KmfobkTzUjy/lTgjkRmlkAmCgnSzTuJ9O0mLP/7NdG/fS/59WgLEdAfeCYVMsYBUfo/Sb0QBCgDipBpM4Y7nodbqy7u17Fjb+J1XjDmRXnX1AGTZTwFOrCozpS5y7go7XepYkTRNKg6eQL+ZEjLwr2k+RlIhgxwcYgT+P66RcZccOx5CcFdL860Q/FnrDmvzFjxmihkCTyJ6s7j8o+BsBxAHyQX/drICQnnz9HjGitjaENyp958zOoOzsiLGvJnxAEqIPyJD4g2T3GZnhs3XAhzqwNvC3YcBYfrY1OckeXQoN1UqvdXahHidipYCR+652qq+CbhXxbW+J+nr9wQeGn7VvVTyZGPyrCZulxJkoE+Bmpq9Ab4fREO8MATxqzZGiYXcgXCg71U5U/Y0+UUESZxC56ny7DoC7twKidNB7RO+mEqH1ce+J+joriJ2vcT2UeZYLLSj/Jmx8DGiHqBpxqDbvaosQQBKiDmlqtrXLLXYyAcOCottaZtBJdpRJjYL/Uupcgzn6uAg9VpC64sqSQgn048bWzLpy/kLifX375pXJ2odW1RSR5q8FPISLiioCy2nIS7ggI1d1lKAIzh4Uvv/gycT+ttRMrLWQYQwo/Q/Kn/Fl+ESYmd8iGdBlGgeOIXpJPg4Pfl3zZmqR17Ngx87NH0IUL5xvyM2DIpyKPBg0NCL7nfSPKYePriFyAzM999dX/ocCHUhP2foUy0fHjx61onbXXo7Nhd3Vzb0PcI1TarNww3EnYC1J+zbVXpCHsiWnY+znWvk9uWRuuzeeZ8H5W29Bd2FdT/J4gqBs/YTx99tlnifvZ399Pl/BtuYzaXpW136+2vyaT99H089OI6adrc3bv3q6GPONS8JMp/BTPqRbLtYGks7NTi598F5L29kt8/IyYP4U9SpW+uvbDFfdDrW12b39/7T4R9yM2PHu6KvOmUftZVTOyxf11O7s6qbu7O3E/+d+o3Td/RvfTswesXx6V9zQ23Pe+yk+5PFD56eRtw5sfDWG/Z/u9kyZNolOn/hcFPgSog5pbu3bttlZ9N5hUOcmQ51QA8sbeTHqtBlfixvHie2ub2QvfI3ThyQW7CCLKCtOzmbqiEjVqe5jySq03wj609ah7fzeNHTt2eHFcsRISPKxVYMwNe6KnLi/r9NOnojR8YE5VWRrO5umCx4Z3rNLp06et3QUSh5DPP6fz5y+4/GSSn6H501Ak0VPDcJ+XIM79NzRcfz+PnzJ8ePKm4V7KRLEFG4/StVRaaODUQOJ+8r/RiRMnnIacKn9G9ZNFuedFPw0mQJ7XO9kL2U8mlwMBDTixwcH9vMRsGPB7E4IAdVBT69y5s7Rt22+os6urVsExqfWsiuI4Fbzhk9wFPvO0tA13JemJGEiPhuEPc2IB7ync3ZG9MW1jaPbls2ndO+u0ebpp0yaafNmU2s/sipAJFZjkZ7Cnkp8ycIhQrvDTFRmSAESEOSeSwryREUOMeFV/1paWVmvD9nfX6fNzw4b1NGPWTAvs5PzJ6s6fbvBgEty6wVe4L5z8rNjiS4Y5H/hwNTqcaF/Nz2uvvZbeevNNbX7yvxW/36nqJ6vTTyPiPR/kp/Je94E5I2YU1P4bzb1yLm3dshWFPQSog8ohXuCdPXuWurqmUotV0DNFNMLd3cRU0Tq/blC5MA/t1vICiLf1zoQNvBVRPEXrvX3cOLp2Ia8w39ISVbL13tatdOrUKZo+Y7rbTyPYTxbHT+kzXFG7QN9UXbASzCkrS+YBPA7IC00/339/m5auVzH6ydPM2bNoxIgRMfMnC0hCF7bUZWhIDQ4m5jkBPMTGRmhE2afL0PaTR8+4n5988gkdPnxYm5/8b8Xz6CzTT2viRBQ/WTw/3cMCDCf6x6ShATLIqfKp7/AAKdppMMM1nKOltZWunn+1tVPF7l27UNBDqQoTJaAMo3Xn6N//9d/oz/78CWvf0L6+4yaUDNQG8lfEtalUA/vDZmwqlkHwzCwMf3SvTK8a3E+eCRL8HK8sZ8ycQVOmTKE1q9doLeDb2oaXTfjJiy9Zfs6ddyV9blaivGIxhozhnzshP11XemYW2qdZdD9lL6UJJ/Y5PiN1ypTJlqe7d+12op5jxozW5uua1avpYfo6LbxuIZ3sP0knT/YP+xmaP6PM0K7fT/ua2kB9Hz+JlOv68UcOH1OndlGXmfZ8tMf6XXVp9MXDfyP+N+voGE+LFi+ivuN9NGA2Qs6fPx/sJ0X0U3XPK44d3/zueSbuSOGd4OM3cYJ3t06YMIEuv+Jyq6uZ34tcoy6+GIU9BKiDmlsTL51IB8x/Ntit/NrXrIL+ss5O69zg7wdrF1dcD5HFfA9Uu1AwqS52H7OIC+5ahbgJH21tbdQ2ts0an/STl15yjauZPHlS4n7OmjWLtm/fYXn3/D8+Z/q5km5etoymmq8NDg5m52dUD6vX1c7X/OeV5biOcZan/PeTAXnGjBmJ+zlm9GgX2A0MnLL8nGxCJffz3NmzNDRkRPAzeL4mi+FnDfa8HtbWCYzmJ8+b48aNs/zctHGja1gAn8yTtLp4t6vgJ48I8jzK/Tx31rzfB38fwc9KWK4MyKNMwdos2E/BcObx033vcy954uLdzKKfUyZPRoEPAeqg5ta8q+bRli1bnIgdL+jXmYXhsmU306zZs61ZjUWOQB4+dNiaRShH5/hsOJ6S1syZM13Hr7/2Om3d+p7lJwfl2aanRfaTd91xMOZ+yl3YOqBu0aJF9PLLP3OOeSXNhwssWrzY6lorsp9cHKq2bN6i9HPOnDmJfx+fVSuKf2/3/v2On/x+v7jAES3u566dO60JYDz66M6fM1HgQ4A6qLnFK00+e/HMmTPOOV4YchhRqaWlxUrWDD3hUUwV+zlfY4wfW2uNCclq7AutfZ/1vTwTJarPh+zjoSHrcUh4jLoV0J133qHFz6VLb7BgkXf7RPGT+2F5aKZWyVuXn+Z1LbaXkqdO7MT2VOoudG+PJo9vqiXHx6q3cfxcvny5lhX7L514Kc2bN48OHDjggks+JownXz9FH+1j2UtVHq366JdHlX6K48D8PK0+8hRFHOh4F2LSGj16NN1www20Y8eOyH46Xgp51EnWTF2Fn0S1/FmHn46vgm9+nkYRj97x4QLYKgwC1EFNLV4R33333bR27dpI19uDkx1gMB9bhUHfLebrvIBnZjJ44W4eWxWDXbirCviohbxPsgv3qAU27z5cufI+bZ4++ujX6fnnX4h0Lf+Z+c/veFBNVmUp+Mm95M8rgqeVJPy0B5ZLlWccoONatepBbX4+8MD99OyzB2L56RnHVs2TTt6semvU4SdJ68u58qZwPCQ1POL4ec+992jz8+4Vd7ugLsxPG5ysn58vVi7nKe6nnU9tDwVQtuFQ5Scx9Sxiv3t+SMqrUbX81ltR2EOAOqgcevDBB2j37l3U23s0dsVpF+otigrTabnzGaBBrfagStOe7SY8qoAujp588jsW2OnS7bffTvv2ddOGDRvq81MCERFAWiQACfMzbqVZW4YlOoB885vfoIkTJ2rzk0fq7rrrLnr77bdj+9mqgBAXgFThI2qjIw0/ef7R0fVqa/z48SYoP0Cvvvpq/PxpHvPGRqvUiGupgp0Dc3Y+tYEuop8uTwMgOY6fCxcutBKidFCaaoUF5dUf/8m3vmUWfLPsysWptFsq3q5LIbX4vSZUSlGf33jTTbR3715rEdmo8iskWZQC26cSZAEt86Fql6D4PG5B/eSTf0W33LJM+990/vz51pZMPNXrp2t2X0Q/g8BC9lT0U0xxtGLFClr10Crtfi5YsIBOnjxJR48ejeWnavap6HWQn0ZMP/1ej6Mbb7yRHnvsUe1+8q5IvoxRb29vbD9JeLTOB9zzkf2UulqdfCnm0zoacFeaDYJ777vPWgrH+T2c/1xPfCd3KObuk2f+jPQit+bM4GDPa//9yx+hhgPUQYC61KHuopEjTbC70doT8uDBQ/ErTgrbh9FwRUqYopBnESvNeqJzfJzb9773XbPSXJrK33TkyIto2bJllsdHjvRUl4uIDyJEFMlPFSSzKJVmHd3XXDwy9+1vP0H33LMitfvEHv956NDhyH7KMBcEdH5+shh+WgBSR3SOj3W7/4H76f4/vD81P3kElE+c4GAXZ91GZd70aXT4+qkYAsAU+XKozmgnn+zB77/7Vq50AV2aUPfbAwd6tmzZBKgrqSqwoLx6/p9eePeqq+ffYQ/mrg1CbvFMQhBTq+JcvVAnPu8/2W+tP8ZnkPECX5xEEZiJbdgUBvS3SN2EfmNswipaEQajFu58eZFZs2ZaILd0aTSYY95Sv6Fr+StnBs9YXbF8qRM+gUKcRBHLz+pz0cvIflYrXUMB11H95LNbOcwtWbLYmhihWt7DqdR8asrA86HLiQxr8MwgfbD7A9ptJh654xG8ev2sqAb2h/kpAIyhGCIQ1U8+EWLq1KnWgth8FwkOdq6lO6SMxvyOq+eYl0Q8HsrX2Mc7d+ykffv2WYtmR40uuxqYqglRQX4KHsr3vaHYmSOKOjo6rAkRHFYXXnedtaSRfzRWWLxcsQ+vd4FoaTFzQ/Eecc9q8/V9e/asf+aZv78TNRygDiqZnnnm2XeX3nRTbqDO/s9+XhEWrIr/vPpZlVpWr/95PNUzhkYH1DV6TdDrflGHel9jPk9YQDgjbahzr2Pmfy2rkUud5yh8YeI45yJdkw3UuS1gIce1g8Bjl32K48D3k3uBcsWxarhClIZiWlD3+qtr17/885cBdSUVtgkrsXZu3w4TIAiCmkgn+vo2wAVAHVRC/e63n/TABQiCoOYQH6PYc/gQjADUQWXU6YGBI0djzEKDIAiC8qsjw0CHxjqgDiqpPjjwcTdcgCAIagJ9vH+/Va7DCUAdVFKo27ppM1yAIAhqEqg7eKQHUAeog8oo8+bvOdp7hCeYAUEQVOQW+s6ddO7c2fVwAlAHlVvrf/2rN+ECBEFQgbV7107+sBZOAOqgcmvtlk0bqb//BJyAIAgqoA4fOkg9h6xJEr+AG4A6qMQ6eKSHFwI9v1i9BmZAEAQVUOvfftt64ENq4AagDoJ+tHnjBuru3g8nIAiCCqTufXutSB0vx+EGBKiDuL5vpoGXfvxjOAFBEFQQnTt7lta88nP+tOfgkZ4fwhGoFRZAp04PnJvQ0TH69MDAHXzT1PkLFvhukm1tou33Gv8w7P0KQRDkUei+x9KBYsdekrca/tlLL9Lnx47xp0+Z5TiWMoEQqYMcWdG6Na+8Qjvefx9uQBAE5VhbN220ul5NfYAoHQSog1wyC4UB8+FP+fMXnnuOeg73wBQIgqAc6vDB39FrrzqrlzwFRyBb6H6FHJ06PfDxhI6O68+fP3/Ve1s20/WLF9P4CRPQ/QpBENSgkup+PXbsU/qPH/wLXbhwgZ/5vtkg/2e4CwHqIEtXzJxFJsg5yRRfifhxE+w6tm7eTIsWL/GAHaAOgiAofag79umn9IPnn7MmSNBwt+tDcBYShWqrScAs5t827LXrzPSOmTra2tro755+mi6fM4daWlqs1Fp9FBOgTiiMGWugwGeJXJvENUGv+1VQ9b7GfJ6wgJqPKc77XR943hMMYUR+5yNc6/x0dZ+zMpHvOfevEOFcpGskn1TnfK5hil9A9kW+xnvsutjnuHYQeOyyT3Ec+P7hi4OO5fvb75g/isngj4Z9bLjP28mQrheu275tG/3yv9bQ2WGg48Nlrqg+qm82xS1ry4RBVJyAOigjQKsHzpI4z8Hu1xzs+METf/GX9ODDDwHqAHWAOkAdoC5lqFu7ejVt2rDe/goOcneZ6cMweIv4WqTzAEFAHaQGNZ0glvT5hWZ6y0zj+IlrFy6kp/76u9TZ1QmoA9QB6gB1gDrNUPfp0aP00xf/k459+j/2x5820woB6BoCtYTPAwIBdU0Pa3FAKgkY0wF6HOx+ZYNd29ixtOrhh+nhRx6h9vZ2QB2gDlAHqAPUJQx1Z84M0huvvUYb310nfvQRM/2RmT5KCrxS+IzQawF/gLo8A1ujAKYL4Bp9/0wz/ZQH6+wTY024e8gEu0cefYzax7UD6gB1gDpAHaCuQag7eaKffvPeVtqw7h177JytTWb6BrnH0GUBZDreH/iZgD5AXT3g1ggIJX0uj59pn3/aTN8RT3K4W37rbbT8tlvp1ttuA9QB6gB1gDpAXUyo+3D3bittM4FOIV7u/kMWQJWTc6rziPSVFepyCm55Pxd07S1m+tvqI8mAx9e2mzt3rvXY2dlJl5kJUAeoA9QB6gB1w1DXf+IE9ff30YHuj+mTAzwd8LtFN5vpSTP1FhjIsjhXauBrGqjTBG+6AarIEPi4mf7GTNOj/H043HHIU39aJXpGdLitEvn6Soys7ga5em+POqCOZXn3hEGb/u/V+31My+eroCwxN1iCf9EGMhdLIFOo12FjqX4Gi3YQ7e6I+H4m+PVxd3ecX3eLmZ6pPpYSxnR+frODXiGhLgGAK8r7igCCy6qA9zhBEARB9YjPan3DTHx3iL0Fg6UkvzOT9zUT6BUC6gIgTicYARjjneOzY3mX7L1mWmCma1BOQxAE+YrD29ZqeoMyilw1yfsS/f4iQ15uoa4KckUAtGaGyEY/+5oq7E2niN20EfNkJeH8nffr6rlXKymWBTrKkbyVTSxHn8c0vyfra7O4Lo3P4hD3BQ1H5fY1Gwhl+Nnaf8YiQV6uCs4GI3JZglTevguAWp4xk7rer/M13UCbNnQ1Cg3adgFIMeqTxrmiRKkAQk16TRHgLhdQl0FULu/Ag2sAqHk9l+T5OOVQ2mVVXkAtK0hD11z+oStv39UM1xQe7jKHOh+gy3vF3oxwWVbPyw6WWcCnbgDUBXJxQa3I4IVrMgKGJvz5mvJ3yivY5QHqigYKzQg/AGT8TkUb8hAHAOuBNVTIgAH8TvCqcGDXQlDSrXkIYiXNeyzl34FRePSsntdZir8rK9HfC2U4fidIs/La/Zr3qAWiQM19TZrdnc3WtZrGBA0dZVfSXa9RW/tJRhuyjnZk/f1lHU8G/zJ4D7pf64O7sgIDrikPCOV5tm2S55MENV3lVlLLWuiezVr02ahZvw9jEQGtTQl0uYK6mHCHa8oDQtjFI3sg0w1qaa6p1yjQxX0PS/G1Zp5V22zwCbAs4DVY0qRxuCs7CAGW8g9jWX+mDlBrFOR0wZyOz2ApvZ9pfD1P69xlBW5FA1IAKkCuXFAXEfCKAjRYVLc459IGsrwsCJwFqBVy7+kGwTCJyQlFBMA0IbBZQbCMwJgJRGKbsHyBHsZExfv8rKAtj9+TJZDleVcHXVG3MkJdnOsBgOmAXZ4gsFmBNNfQWmSIa9ZCVRfo5QXGinour+8vMqil8Xo95UO9ZUmRy6C09m9Na/kUpuG9RQHDPEJg2UFQy3c2E8A1PdSFgF4zQ1vRIa1IoKbj89ICNV2zS/MwNq4oMFfvZyQJgVkCYNaRwSSgSheElRECtZ1rdngrLdSlAHxFB6oyAVnexqmlBWppQFrSZUneyiaWg89jGq7VDYB5gkPdAKgTGIvcxQxwA9SVAvrSfH/ewKuZx6LlDdTSjLqlUZ7o/o40VuZnKb4vyV0jsgTANNcGTAMMdYJamsCl/f0AN0BdEcAPQAZQSwPUsoi4oUzRC41ZdtsmCYp5m+Ch47W8jSfMXcQQwAaoa2b4a4bzScNdliBXZJhr5N5OqkxA2ZIcyDX6OVmBHQCw+cAwEsAB1gB1kD8AJg1KRR+LljWoZRVNK3I3ahnLGZajz2uW6F6WgFcEONT2WYA0QB2UPQgWCcaaKaKWl6hbnrtRm7HcYTn+7LxMykgT7soEgLF+FgAaoA4CFOqAqTyAWlaL7xZpNmqaZURRyiNWsO/KU7dtnGvzAoBZwqHyGoAZBKiDsgLDtOEpC1DTDWl5WNg3T2WFrp+F5eT3y0vXLcvJ9UWK7gHGIEAdBGmGRV0wlxag5W2ZEZQbxYFKlvJ7swS7RL8fAAYB6iCoOeExyXsG4+MgnRCX1GezDL439L0ALQhCgQxBZYDNPN3fKFfSh7jEvxcABUEQBEEQBEEQBEEQBEEQBEEQBEEQBEFQSfX/AgwAjuiQKAlAWXEAAAAASUVORK5CYII=;" vertex="1" parent="31">
                    <mxGeometry x="320" y="125" width="629" height="482" as="geometry"/>
                </mxCell>
                <mxCell id="36" value="2" style="rounded=1;whiteSpace=wrap;html=1;fontFamily=Helvetica;fontSize=24;fontColor=#000000;fillColor=none;strokeWidth=5;strokeColor=#000000;" vertex="1" parent="31">
                    <mxGeometry x="40" y="240" width="170" height="40" as="geometry"/>
                </mxCell>
                <mxCell id="45" value="7 / 2 is 3 with 1 remainder" style="text;html=1;align=left;verticalAlign=middle;resizable=0;points=[];autosize=1;strokeColor=none;fillColor=none;fontSize=24;fontColor=#000000;" vertex="1" parent="31">
                    <mxGeometry x="40" y="410" width="300" height="40" as="geometry"/>
                </mxCell>
            </root>
        </mxGraphModel>
    </diagram>
</mxfile>